<svg version="1.1" xmlns="http://www.w3.org/2000/svg" viewBox="0 0 994.44140625 518.80078125">
  <!-- svg-source:excalidraw -->
  <defs>
    <style>
      @font-face {
        font-family: "Virgil";
        src: url("https://excalidraw.com/FG_Virgil.woff2");
      }
      @font-face {
        font-family: "Cascadia";
        src: url("https://excalidraw.com/Cascadia.woff2");
      }
    </style>
  </defs>
  <rect x="0" y="0" width="994.44140625" height="518.80078125" fill="#ffffff"></rect><g transform="translate(286.9140625 227.19921875) rotate(0 114.767578125 94.771484375)"><path d="M-0.5409416349595555 -0.7342115764544654 C92.41331762891143 -1.1794267152870737, 184.101995666842 1.2113611019973476, 231.0982753595633 -0.9354024493253035 M-0.003266514901053319 0.5605923018802363 C86.52069537044765 2.1957310177792526, 174.04143153409572 1.0462354603691826, 230.23330473285972 0.6223366295784526 M229.0122132245451 1.017218267545104 C226.01515447048698 41.91167443686318, 227.71892624048743 82.19129868174278, 228.53386789001522 188.35254392586648 M229.69112240057436 0.6420543761923909 C229.17737842886302 66.88518057622679, 228.92140595404956 133.20929756758198, 229.1364923296496 189.636869517155 M229.77398893432144 188.94192285674538 C145.6903799015003 189.3797521732142, 59.196443555382345 191.305292172478, 0.9498825458995731 189.58151685579534 M229.6896096650544 189.23632594830795 C169.07056122188305 190.17783785161205, 109.17240771553757 189.79400580040712, 0.43803005460916095 189.28043675443294 M1.5540548507124186 189.32466748915613 C-0.22490388144735318 133.54992427336364, 3.062665343387089 74.66022706282018, -0.989304369315505 1.2887887712568045 M-0.03771181125193834 189.15612780768424 C1.194322613740187 141.9572113994862, 0.5858129837753585 92.03954213026518, 0.6644997773692012 0.06875338871032" style="stroke: rgb(0, 0, 0); stroke-width: 1; fill: none;"></path></g><g transform="translate(54.0859375 236.0078125) rotate(0 104 37.5)"><text x="0" y="18" font-family="Virgil" font-size="20px" fill="#000000" text-anchor="start">/movies</text><text x="0" y="43" font-family="Virgil" font-size="20px" fill="#000000" text-anchor="start">number of shards : 5</text><text x="0" y="68" font-family="Virgil" font-size="20px" fill="#000000" text-anchor="start">number of replicas: 1</text></g><g transform="translate(62.12890625 330.9375) rotate(0 9.8046875 12.654296875)"><path d="M0 0 C0 0, 0 0, 0 0 M0 0 C0 0, 0 0, 0 0 M0.5074520722357679 5.599117180009477 C1.3570458749748133 3.305999941910548, 3.4044329456170255 1.9496835139692146, 4.380269106062597 0.10937318688605369 M-0.15271244232075903 5.99783502188801 C0.46487535116399487 4.934034547214204, 2.1412293633479487 3.989783220626034, 4.64282906498248 0.5411502085474544 M0.923228293014656 12.533110703944743 C4.657509507553442 9.214842388568941, 6.66534982460073 5.294862538698156, 9.859760492992532 -0.6026318599388241 M0.17679536203850377 11.869099554091274 C3.103440562130961 8.219938653395882, 6.267352304501139 6.2611390018543425, 10.758867298764121 0.18198954044727111 M-1.2825392606249313 18.707667254750305 C3.4796630332828578 12.327377799723369, 10.49494684728442 7.290445192334536, 14.40229092305847 0.023112292115109234 M-0.5849116948014359 17.88789712069618 C3.880587134420981 15.450393917321675, 6.477321251316744 11.418959103594563, 16.03790757479467 0.8745082502183488 M-1.2784963117726829 23.66489160777545 C5.413155782338392 19.317812258992753, 9.912097804938204 12.864325167890053, 22.46771641993704 2.316626556847451 M0.566949908826432 23.19940614765054 C7.916259341241752 15.437186512042544, 14.99113656757331 5.954033493769067, 20.012190506661263 1.6252668217534403 M0.9717903591829202 28.912531668984816 C8.473486840008265 21.49904692613067, 16.11969301542239 10.82226077512751, 19.75701122236714 9.04617294737076 M2.6241424156489632 27.59864934134625 C8.81459721522094 21.048090075205735, 13.201230982713863 15.971562528521488, 19.842177727905067 6.118561768652252 M6.157033589826138 25.927872487061883 C10.554062596770063 24.736242214805422, 12.856464849057184 22.64344817190634, 22.26009477485708 13.192375495586333 M7.549151856609793 26.868728400857414 C11.831173060426535 23.548328399182598, 15.560257776047692 18.816004987535223, 21.22808531389377 13.063685335706708 M13.548410166486748 26.425860929603033 C15.573830373753232 24.34272367914619, 19.363975399905232 22.58996129771907, 20.011217265671977 19.606267908845926 M13.033667356812977 27.175695166990437 C14.501694766159225 25.65374748275265, 16.94660206331531 23.675598954076577, 19.996135581240917 18.69827873709322" style="stroke: rgb(76, 110, 245); stroke-width: 0.5; fill: none;"></path><path d="M-1.3696152409465867 -1.6504207326870528 C5.792362310341559 -0.5163956575277553, 7.7547911477668094 1.6045979010224982, 20.731756232918997 1.6832442328959587 M0.7687250251728983 0.3053776209744683 C4.874883179381868 -0.2471673946332885, 8.590233403210732 0.7128438229934545, 19.308237222077878 0.2080094212469703 M18.42257002554834 -0.26292175613343716 C19.919162888293975 9.940682545090022, 18.65337081647467 18.607965206298832, 17.799815392121673 24.056761855259538 M20.541645762510598 -0.35802285093814135 C19.508359670745666 8.025851859046453, 20.303559154378707 17.73365826306181, 20.585538891144097 25.71578316669911 M20.3318245145565 25.35661090688518 C14.832088565584854 25.82939469926423, 9.153756604318914 25.612016817046243, 1.0048119376951945 26.75751323473378 M20.56840757041573 24.957300287675025 C16.553645026917366 25.077507970020815, 10.967550442244828 24.45096176208899, 0.7591925336128043 24.33044627367417 M0.5531775113195181 23.74024265445769 C-2.079543431952952 20.02854837947998, -2.051020165637492 15.099013909800123, -0.1827248577028513 -0.3116061743348837 M-0.07955378573387861 25.167802589945495 C-0.05819569270312058 20.23771153249654, -0.07949591915308701 14.412741133922099, -0.8933629123494029 0.4788579819723964" style="stroke: rgb(0, 0, 0); stroke-width: 1; fill: none;"></path></g><g transform="translate(95.55859375 332.6015625) rotate(0 70 12.5)"><text x="0" y="18" font-family="Virgil" font-size="20px" fill="#000000" text-anchor="start">Primary Shard</text></g><g transform="translate(63.4296875 370.896484375) rotate(0 9.8046875 12.654296875)"><path d="M0 0 C0 0, 0 0, 0 0 M0 0 C0 0, 0 0, 0 0 M-0.8605017214687416 6.701541269620053 C1.5819550896962324 4.905853020842463, 3.381333395027288 2.542710738679428, 4.441996756526178 0.5647887144086176 M-0.05140290815847609 6.710358569447987 C1.724719675034074 4.515497093205138, 3.2613757886866144 2.448157291932675, 4.761202097641772 0.1258097052422577 M-0.3213622129429472 11.704797624468386 C1.561171925846169 7.501293253617235, 5.258341361145719 5.1271813712303205, 11.554675087285172 0.21974924011973163 M-0.41512487818490396 12.087183729975997 C2.9346984189592633 7.758692066023666, 7.013470179935898 3.302803828251563, 9.859025410515201 0.7142018768086793 M-1.1964935595682125 20.21970296362477 C5.123365288222134 13.669833673655187, 8.150706535948839 8.58532278902351, 15.738603772133072 1.1806499722343853 M-0.18071234231351418 18.994841065165275 C6.1088735702003705 10.875007782347474, 10.957945262128762 4.462399360422669, 14.980657244570036 0.3438179769483378 M-1.2943916002102878 24.38342343614912 C7.842098228771157 15.187285910462814, 17.711733627085472 7.412847553580207, 19.429463310034897 -1.1992415295203944 M0.2973835423774336 24.9613312880463 C5.293986886543615 17.691125498528372, 10.963009034934123 11.71494181886267, 19.936499393412795 -0.06046079501861534 M4.233398203565445 25.98478785782449 C4.287749410310395 24.655372484660823, 9.27330250884793 17.448874356212002, 20.675906783615204 9.05380995267009 M3.554290173402693 26.761063871638402 C8.15489453657591 21.34706123195125, 14.572136734062799 13.91423505668034, 20.671757608366164 6.768971506254128 M8.968288884655745 28.032209207021857 C8.911609739821653 24.366507791297316, 12.62492961376439 20.96047709875564, 21.286335082694805 12.838275130394635 M7.32782317154965 27.111771862671937 C11.421219126214543 24.131003455627322, 14.950165362465324 18.352502249429257, 19.91783692964158 12.063929098214743 M13.779563346005627 28.22098948538517 C15.980273407156517 25.440155900699544, 15.621355399147596 24.689363718563428, 20.078203869520614 19.11662228636154 M13.3487174052872 27.45658506618095 C15.468980871973594 24.19634586075426, 17.945046127023275 21.941920814958927, 20.543384169091397 19.534862867674686" style="stroke: rgb(250, 82, 82); stroke-width: 0.5; fill: none;"></path><path d="M-0.8413248086653766 -0.5742140863949317 C6.9949609726900235 -0.0007772623728669603, 9.011323703343805 -1.186310599900753, 19.599712209885183 0.27058336768095614 M0.6089362642997003 -0.49071098916829214 C6.422708184803923 -0.6767991128406721, 14.700356475648732 0.060544189272332016, 18.894097617598163 -0.9279634190643264 M21.308314794674516 1.522828733548522 C20.12015531476074 8.01598338939839, 20.257856528120573 14.51442330830978, 19.475507790222764 23.404510593041778 M20.370090353302658 0.4908192725852132 C20.09652400097915 8.085127012205703, 19.666799695111003 14.458179449396994, 19.872329789213836 24.399223891086876 M21.224142405080784 24.480379404507403 C14.9630424646748 24.180485982805113, 7.997045470729063 23.79350222287103, -0.8039577830422786 24.41557351616939 M19.703238219375635 24.453493731267372 C14.618577994766383 25.97918191880017, 11.8943254839578 26.36473590288806, 0.5659644156730792 25.195652705206157 M1.296018237248063 25.404923951253295 C1.8301021010875775 19.46317800086799, -0.15347735571860538 11.464095243231712, 0.2829629722982645 -1.0943641904741526 M-0.00013179797679185867 24.94657361228019 C1.0312583543792062 14.922989813115054, 0.42966095585969016 5.159657059176968, 0.30094148498028517 0.7464214833453298" style="stroke: rgb(0, 0, 0); stroke-width: 1; fill: none;"></path></g><g transform="translate(97.99609375 372.2890625) rotate(0 69 12.5)"><text x="0" y="18" font-family="Virgil" font-size="20px" fill="#000000" text-anchor="start">Replica Shard</text></g><g transform="translate(297 370.58984375) rotate(0 22.294921875 19.2626953125)"><path d="M0 0 C0 0, 0 0, 0 0 M0 0 C0 0, 0 0, 0 0 M-1.0010400563152382 6.775579894383542 C0.5372098140708004 5.73550822284313, 1.8529773857151113 3.1697423159546108, 4.2954579028808535 0.5877844009396845 M-0.46296185810583323 6.74828566056966 C1.0590898224755343 4.92372986308604, 2.254954684678818 3.362876945033095, 5.154431737171954 0.11373946665201723 M1.6652109586726533 11.17836468112427 C2.8669958716788724 6.392550385811751, 7.740707483181907 2.9200694093131796, 9.752049955678117 0.10202143593577162 M0.5290675551723347 11.600134317248642 C3.438961028313453 8.036288743186484, 7.304460409567294 3.6618890490073652, 10.804909280640018 0.27449667184499527 M-0.06847309419421954 18.895587031637007 C6.074412161254778 12.44649957576766, 10.19504925334983 6.17869146309271, 16.062926651447494 0.5703573587280681 M-0.11784145241139932 17.835567530152076 C3.9898496920561946 14.818330899327027, 5.787863587443821 10.348174831438815, 15.661761815197249 -0.057453276875896186 M0.27109644023694734 24.05662386463499 C5.332350550648686 19.944855616615527, 7.415477969604774 14.679364348475158, 21.121909961381817 1.5129676567554 M-0.24670872537426014 23.08347464603847 C5.226484153986544 18.545965397647866, 9.307595975516161 11.827033660898802, 20.56504578264233 -0.8778042770758745 M-0.4252968476573571 31.63636220595633 C6.169880655807861 21.77797886075075, 13.943753134257314 15.003344750018389, 26.320772734146924 -0.04277375955016005 M0.5325691886757866 30.78780204313641 C6.459843810776239 23.581710216533413, 12.779511048734427 17.034187561882007, 25.532206138272198 1.0590767715138139 M-0.21881804998037424 37.75454315897201 C7.887951966039244 25.898020698477538, 20.57524518107535 14.087501219699245, 32.920424531630076 -1.4916009920404072 M-0.3927780269738754 36.532493705676245 C6.905798191099368 29.722850318547636, 12.222106234330955 21.27971477514952, 31.00789878186474 -1.0220679145992513 M3.322935453136182 39.39763846138469 C8.51830164922223 30.533838299796848, 15.255576362531801 22.142169092437644, 37.645429424756514 -0.6410504466760436 M1.429336085435665 39.46256018972001 C13.75283613017869 27.80677975518634, 24.324471391085922 13.995305731244905, 37.62797318473582 0.7287875144836029 M5.596020790598555 39.63931754678811 C15.327449082705062 27.70692976558167, 28.443166494554234 18.172067300453666, 40.99497822541349 0.18836252469112935 M7.892191555201276 40.098295684720824 C18.98960769082265 26.53849831767058, 31.904677244841547 13.392316723984713, 43.43669462166332 0.28052590026995006 M14.678708629341472 40.823237964444345 C21.013034530891154 28.086800242986538, 31.173269076145004 18.99859746039631, 45.74479819654524 1.6477394265459537 M12.95507101214831 41.111818433300144 C19.480327694103632 30.863463491112057, 27.484260158020902 22.85460005928884, 46.2949038809821 1.7992328781040072 M19.018219290290173 41.48170705839269 C25.631995991775298 33.69577946443612, 30.11731867380695 25.550872716850435, 45.258125284076996 7.259621977927729 M18.23624580259263 40.83948241035663 C27.95689085816752 28.2586416269602, 37.02685997380148 17.01746342711457, 47.09723949650801 7.141770235384449 M24.461399835331918 40.009053226781354 C29.009534731986015 32.32726260718674, 37.98491322775893 25.096412774373185, 47.17244023287702 12.336653791539112 M22.949903076312125 40.548998582397864 C29.107617512244712 34.03218389808825, 34.28477725344835 26.935872321156822, 45.365123863499946 13.368187590673307 M30.068751835391943 40.63680256364962 C31.514093049465416 35.13072140262272, 38.19205716390581 26.45262324913287, 46.557437325842095 20.711466595751077 M27.626423554622654 41.00836154932251 C33.32399797216898 34.44938074883212, 40.02119037946319 28.14501532347547, 45.31098197774531 21.06535861570093 M32.50395471922265 41.274464413752845 C38.88794996803264 32.97785706766319, 44.70470447239239 30.557024167921096, 45.02149377184951 26.380212125490672 M33.362944871170015 39.98808906497067 C37.06647792022716 35.37150233744902, 40.45390301031201 31.379571704958032, 46.75948747092889 26.57406038621559 M38.14287448281984 40.10972745328191 C40.395654149659 37.64424199593123, 43.16212113589672 37.53920546448573, 46.874907912523796 33.11433490178025 M39.1998621940017 40.66353391304593 C42.00845278453311 37.50635885536846, 44.47297494676725 34.27748573409733, 45.664638229809086 32.08648057974352" style="stroke: rgb(76, 110, 245); stroke-width: 0.5; fill: none;"></path><path d="M1.5116182509809732 -0.6754068974405527 C12.449163966202832 -0.29543172449648414, 23.143417826566292 0.3340475049537417, 43.2941257301718 -1.6045351270586252 M0.7943737981840968 -0.7823878554627299 C11.584329976465598 -0.7884589543389666, 24.607855299949737 -0.1702042033719408, 44.51578094344586 0.9142648251727223 M43.615667993202806 -0.43795635737478733 C43.77224624526616 13.458912099110421, 46.12280184400197 26.524945213188403, 43.44681476987898 39.373491203412414 M43.70050312858075 0.6388634713366628 C44.91126494103037 9.78439847557911, 43.59470267587267 16.989531448876733, 45.388908374123275 38.17386167962104 M45.23147653974593 38.781784450635314 C34.51418577975528 40.81510905119667, 22.266615860218735 38.30384502503166, 1.3749955240637064 38.93433270417154 M43.794829594902694 38.39710992295295 C30.87902277324065 39.06124281670763, 17.749458436624987 37.57662090446665, -0.07860617060214281 38.12692948896438 M-0.28591460548341274 37.1414693351835 C0.6296537712910322 26.843912856847055, -1.5237617298266741 16.219305215790882, 1.3419126216322184 -0.535841191187501 M-0.7432339610531926 37.87885662633926 C-0.5269610865721006 30.50390535083261, 1.0382534579625826 22.48060526703739, -0.15754516143351793 -0.8624875573441386" style="stroke: rgb(0, 0, 0); stroke-width: 1; fill: none;"></path></g><g transform="translate(350.966796875 370.8740234375) rotate(0 22.294921875 19.2626953125)"><path d="M0 0 C0 0, 0 0, 0 0 M0 0 C0 0, 0 0, 0 0 M0.054951228233998006 6.130876370568864 C0.32539190395927575 5.651459450639952, 2.2417470606015124 3.1978833478294266, 4.734621747168249 1.065711997806769 M-0.313993873042042 6.381892674838297 C1.0221005819056646 5.04370926076116, 1.93245937170449 3.6894371617903006, 5.324342815535611 0.29140315873895223 M0.5145141416322099 11.492309321879922 C5.244865126130316 7.702074506468067, 7.615929991359659 3.631943793540745, 11.16333729619993 -0.4467642356559871 M-0.208596326308359 11.826911362677395 C4.01301405669418 7.5718128072656175, 7.058282572629633 4.88520107949628, 10.632039605778587 -0.3175785642966865 M-0.05716676735787196 16.66328974897104 C5.154880854043725 14.99542183630931, 4.501340316514561 11.19075572608951, 14.201803965031583 2.317161376301663 M-0.4135894384747605 17.78453226564514 C2.3717862565604193 14.028688081353963, 7.056799174909539 10.136921523421364, 15.29650342883863 0.5549788062390855 M2.1877190007082437 25.34424037457919 C5.310245315808572 16.105023468220455, 11.501864746654599 11.850756459109082, 22.595955040583277 -0.8570142095745084 M1.0067209948039864 23.38949737017518 C7.754382818540861 15.857418785308303, 15.557138291501674 5.881793538482675, 21.663464385362232 0.8865676153614643 M1.1353618866344348 30.194125205043903 C7.765420580345119 22.567203005313353, 15.534705597476986 13.2186788582361, 25.572685011338802 1.0147585695621313 M-0.8864477592940077 31.42070659319704 C7.3444976166235305 22.44714028820153, 11.814957569170051 15.661687979978826, 26.744320422087224 1.0276708066475333 M1.2381466030049602 34.89530741404866 C10.141831343524444 27.16163936671743, 18.61607236278526 12.787424085464323, 30.980671993872917 0.713648932172287 M-0.4343206073251089 37.23059757128482 C9.832654803187502 26.943535990299097, 18.333485492424643 15.300670053222252, 31.49941347394774 0.8836336239486222 M3.547494324375606 39.07891205960861 C11.42268486725359 30.709887533824357, 15.8242502289818 22.912032679534978, 36.11271736379837 1.8150550426077565 M2.065249943625844 39.6604088878443 C10.079246336986028 30.570475429246375, 20.614645583293182 20.043447010918925, 36.1212946724159 -0.1496806804928461 M9.058949484340115 38.67029314563001 C13.386570009766935 32.950886644378066, 24.960558875952668 21.514066565116753, 42.8917179876899 1.7134273693292386 M6.296620583011968 40.291897134672354 C21.179011807029553 25.668511069748604, 33.989744873857774 11.75028528180437, 42.81444657742583 -0.25481748782554803 M13.305738804520715 42.196824041687435 C22.822013349393927 29.629400022224985, 32.1403433103972 17.796957480261945, 47.247575933179256 2.231864487134075 M12.113666225814868 39.66137733173419 C21.7604076330351 30.98796776108214, 28.35618768389331 22.400992017885574, 45.76594288746863 2.3231149896384835 M16.920507410530146 38.83155916213267 C25.1096929637317 30.093734524821024, 32.91102638663958 21.475472328061848, 46.303170700879164 8.646936435374066 M18.695266128506656 40.20963460627221 C25.104635851842183 30.23226048165888, 35.321494441380096 21.241433139455744, 45.925170671516426 8.207519066641673 M21.540995918943167 41.19160522542642 C33.60209407440294 31.825418185514145, 40.67766305091354 19.09485396845678, 44.93609534034539 13.732346397064367 M24.04473097602147 40.986545452137754 C27.46292058511201 33.63843039425374, 32.66564674460851 27.865975830709246, 46.159316484984345 13.840219264089802 M28.499068205372517 42.43829789592048 C30.49568511233501 36.284776253438444, 38.13154396728606 32.64956323141395, 47.81162518916221 21.613816920888453 M28.27258064983142 39.65750437157323 C35.22524761345481 33.01695794365885, 40.430064924663135 26.033584232404134, 46.88008510881604 19.24259853105697 M34.00617075155632 39.34456119243621 C37.0671890718961 35.36589828047928, 40.67684615367172 30.967801361095674, 45.34705258644217 24.62975132775611 M34.35727443386012 39.47040967922292 C36.976394518923335 35.06457594339012, 40.68229860636116 30.875511921883547, 46.53904767915637 25.724871735164214 M39.45725726707469 40.88110621909592 C41.60401475197595 38.226073422156055, 43.7230684244576 34.98228595313165, 45.75328770915543 31.185498107396427 M39.280170508321405 40.826174439284756 C41.66794450885897 37.91221586465803, 43.30852358158486 35.261265222688984, 45.65615096266878 32.697608450366545" style="stroke: rgb(250, 82, 82); stroke-width: 0.5; fill: none;"></path><path d="M-0.3698768261820078 1.6757233683019876 C14.61173092661011 -1.4654751126652628, 25.70250577840125 0.9812528188342184, 44.75829169712961 -0.8491441067308187 M0.25236618239432573 -0.032009643502533436 C11.93153480204819 -0.5613580263599943, 22.721296263804106 0.5623053096785952, 45.525961306877434 -0.66941196937114 M44.738469099625945 -1.7057482060045004 C46.60669307920716 14.880988897702084, 45.30274831268571 30.85993219342527, 44.99539700709283 38.986663753166795 M43.792002824135125 -0.5793324233964086 C43.89611542411194 7.342013146767386, 44.51909181661949 14.962381963696318, 44.43153136689216 38.62834562640637 M42.955570137128234 38.50382369197905 C31.310910518923265 39.634624754672224, 18.70498342940482 39.40721557069319, 1.2894385810941458 37.0151386205107 M44.54583185631782 38.027270692400634 C33.53008053629128 39.2864028269456, 23.42283465602304 38.94919160548907, -0.06488660257309675 38.384197819046676 M1.9117363449186087 39.95049619115889 C-0.6147948324864956 25.127761917649877, 0.3581196844393162 11.269621531469966, -0.871851647272706 -1.150865500792861 M-0.13479784410446882 37.69865785818547 C0.6686978515640476 29.236369146518882, 0.8618322488323429 21.22108952146118, 0.744501587934792 -0.1638487996533513" style="stroke: rgb(0, 0, 0); stroke-width: 1; fill: none;"></path></g><g transform="translate(404.869140625 370.5068359375) rotate(0 22.294921875 19.2626953125)"><path d="M0 0 C0 0, 0 0, 0 0 M0 0 C0 0, 0 0, 0 0 M-0.04341912564354644 6.495524347622983 C1.0817691723955858 4.598302663941832, 3.844728263779901 2.324059172523739, 5.744540778132624 0.4672556791302973 M-0.015245109391386291 6.483462855641834 C0.6792601706409737 5.350331698672073, 2.161247327559225 3.662511030809346, 5.022890902268237 0.10609782932673034 M1.2530617677699434 10.724770616411744 C4.858741327793726 8.297460701010179, 8.088663240232313 2.4148124712444554, 9.160178169560563 -0.540966244499409 M0.9126472623180257 12.176177946894944 C2.562811689861292 8.543527027607336, 6.016163051853988 5.506830667054217, 9.851531437736881 0.5726418945088747 M-1.2357572848489742 16.920419935975843 C6.323903767364832 11.381908049682433, 8.323219616689578 8.599815025529583, 15.094634236305435 0.1271860363823345 M-0.4931803942239146 17.84950729822802 C5.658224022933606 11.90773868363814, 12.574511825940883 3.9004450061963922, 16.250571394808073 0.36976411723764446 M0.0076837858370755185 24.86438332842207 C4.881964060371512 17.197617489491705, 10.301451788751546 15.31616711665217, 20.67058722702589 -0.28674243817334144 M0.5806033566779707 24.264987389273106 C7.975479219282792 15.425576670525865, 14.185111101756059 7.916711510316141, 20.694000282602275 -0.11513671053801744 M1.882459397478904 29.338071178410402 C7.334660290194222 19.843006293978313, 19.300262629837125 10.962037669578176, 26.55567016885838 -1.3087028028431593 M-0.013792168297861451 31.37873956817036 C5.57197480762195 22.640700493040296, 12.612844944049511 15.861532811860995, 26.17087953319064 0.4625228796166123 M1.2512325829732696 38.568646464311826 C8.839398981568648 26.073918077343034, 17.663908661935512 17.299067167870724, 30.247120748690165 -0.5385072844789143 M0.5708236516359726 36.54912188165014 C9.992717244016882 24.225908816312607, 21.64445575355104 11.905077094546499, 31.429575983851052 -0.2418508332908864 M0.2827340871884587 41.83750279882899 C17.33497431667586 25.632265193295154, 27.858517298254903 8.305583240097633, 35.518331162446486 2.1987295859586915 M1.340248211738384 41.10180894827447 C12.068309674928251 29.585413109878296, 20.788082196524975 19.790497982393724, 37.50340004339938 -0.5413179368618408 M8.921849164030714 40.700731490555654 C21.923879915510362 27.869662938196008, 33.503070362403314 11.1665492335019, 42.729820347014595 -1.2475856683821434 M6.835222478806241 41.144009019996474 C13.609618628733259 32.31113741735338, 22.353961135789028 23.43288890585756, 41.9278279241135 -0.22383152708867726 M14.608176605434764 40.171911963753885 C21.391411936065964 30.83305058030777, 31.041942912872265 19.821993824070024, 45.33114369033873 2.131070331983423 M12.756240020164896 39.34100440193761 C25.451840972006067 25.38499401616809, 37.44105883136291 12.74389396304128, 46.148661351828274 2.5261080938728213 M15.962764857325848 39.640773437462975 C28.398853876132357 30.595470530120565, 34.82330122956964 20.783152977693025, 48.17186526334412 8.40216118109469 M18.556533119630213 41.42856313149654 C27.225240664919475 29.36451123587015, 35.690808502843396 19.2953644386891, 45.73924979785956 7.6210267759213295 M21.818789106591225 38.54656618483113 C29.57169954314036 29.663378175751063, 37.644059937279145 23.11952494584258, 45.188293935899026 15.610752366654316 M22.37899986448008 40.48006023768084 C29.57470352092118 34.53752911023283, 35.31777740012674 27.924766561234307, 46.99347659496624 13.582888200118878 M29.035579049156134 40.35323817489763 C31.440971386014276 35.77087523896228, 39.92334402017855 27.429789940358894, 46.56145211590023 18.509397492033273 M27.776481913530354 40.475404382889174 C32.77028684281443 34.675537825659184, 38.21657102110489 27.97747631670078, 45.98997767643572 20.86673010069582 M32.868932862795454 38.5344328167346 C37.553984500796155 33.31995264464502, 43.326762026125834 29.447818340814678, 47.68344256895625 24.31059726507521 M33.932358689588995 40.76251796753711 C36.623795062453205 36.85741763511726, 39.936177687072785 31.877458413728572, 46.5256926044266 25.162059454416173 M39.81118855530958 40.29832060544732 C40.25285593449783 38.17024468977087, 41.11625910788028 37.68835076807973, 45.30536826720958 31.26611593923009 M38.64272954607013 40.11348560795169 C40.6170244149662 37.736986241874654, 42.950264332405574 35.30856518220781, 46.71336557676581 32.10424552805199" style="stroke: rgb(76, 110, 245); stroke-width: 0.5; fill: none;"></path><path d="M1.724996978417039 -0.6708548311144114 C16.802706509277414 1.5907448909854793, 33.14475357981064 -1.3245508887195683, 46.21949672140181 0.9785825368016958 M0.9141739783808589 0.09211042243987322 C16.220090578017334 1.1134932738032148, 32.11855459434082 0.6109317939963148, 43.64742861967534 0.6792440982535481 M42.679024213925004 -1.1698258761316538 C43.61760566568455 8.972835480885808, 43.96584765052876 21.717461788464792, 44.07158952392638 37.87564382515848 M44.06113182287663 0.5465658279135823 C43.554117819912335 12.129602951060406, 44.919757893927 22.63835742802803, 43.90258939843625 38.07058629114181 M43.09531074203551 39.92256317101419 C29.504599986566973 39.02602982846747, 16.45764571608379 38.02089411345969, 0.964127654209733 37.931386983022094 M44.22523577790707 38.53396972734481 C33.89821429917538 38.63001916288613, 22.526960451974446 38.26768404721497, -0.7142943860962987 38.82107937056571 M1.5652261916548014 37.55888799391687 C2.003426382186717 30.69727164401138, 1.5409345718649092 21.312498174354914, 1.7091838661581278 0.014403318986296654 M-0.6103903772309422 38.371491310186684 C-1.159938916570809 27.964541619056945, 0.08167962729248757 17.996065629404256, -0.8265442671254277 -0.1183184115216136" style="stroke: rgb(0, 0, 0); stroke-width: 1; fill: none;"></path></g><g transform="translate(459.490234375 370.6435546875) rotate(0 22.294921875 19.2626953125)"><path d="M0 0 C0 0, 0 0, 0 0 M0 0 C0 0, 0 0, 0 0 M0.25785014334601664 6.664407742817991 C1.4170764513528904 4.312415663011523, 3.0127925689115203 2.6681382575589887, 4.64527370068664 0.14616028404210146 M-0.06833049614446857 6.398758897607319 C1.588571811825397 3.7726481130952596, 3.54540312368812 1.935800500428125, 5.0012443430298035 0.005036830886941512 M0.3759509527217255 10.908617423891602 C5.877840895871493 5.788559399958177, 9.670757113680999 2.3400974847031946, 10.173645052266252 -1.081071158210957 M-0.6506348698307169 11.78437699493724 C2.9761472210256685 8.779232163928938, 5.2811270731764415 6.735842869043878, 11.398661140304934 0.47051455705312506 M1.053460962087824 19.77441782215672 C3.339497878048032 14.955215609464254, 8.364949212910275 7.39628597689447, 17.097965718715866 -1.0588265297072956 M-0.9375260174786906 18.841927166935676 C5.276394808886276 12.936997657396553, 8.731992423736958 8.459897500756535, 16.18236922705867 0.18292468571336773 M-0.5491196194478061 23.40720682190275 C7.903701548072882 14.808722923325844, 14.045797640988395 8.808159191589152, 19.477616295495892 1.8134216772555831 M0.25743445308872204 24.578842232651173 C9.409775222593183 14.928689568400607, 16.142411568392625 4.7938078916231035, 22.007564434127772 -1.059978423251259 M-0.9062909529964074 29.56990338465964 C8.374330799064854 21.550025232837164, 15.723836753069298 12.499674253237735, 25.891799655419202 0.9977429745730699 M0.019658763012792235 30.088644864734462 C10.587847439688154 18.36320898543095, 19.23441066710708 8.359599929679021, 26.967864056725414 -0.2975415732699691 M0.0028131193387785913 36.11271736379837 C13.72721770486093 22.04572880766616, 24.19610407019064 10.649304512978386, 31.808456610373057 -1.2951279896066303 M0.16411097058090363 36.1212946724159 C5.757889911773608 28.219834014056886, 13.848446499381184 20.892905587216045, 32.87315836962948 -1.0765069228351827 M1.817626467426038 40.62758924702159 C11.387524421777282 32.25555331195472, 15.708425423067688 23.264085361070176, 35.2841824812827 -0.3922588712442199 M3.0081119085519674 40.550317836757515 C15.583037027850906 24.398203188570406, 28.755669343734386 7.7322149607428585, 37.162031219155836 1.244167002951773 M8.266237470171614 41.668657217923055 C17.092754690678646 28.537117438047936, 26.13504732747623 18.203222478729206, 41.27519933003538 -1.2586962721915 M7.7476759812228515 40.18702417221243 C21.6389099295427 24.32895224024643, 35.19112137431193 9.41038828055482, 42.11898225508236 -1.0131213294015282 M10.883948044510234 39.93504757576484 C24.452156530278735 28.432839134447832, 34.873563821640566 17.398172866356727, 48.13926566957533 0.9871300620363712 M13.082320193418909 39.5570475464021 C20.842732521244802 32.58237700903784, 27.616083970520577 23.812664923818193, 45.28258664074391 2.2337293404491305 M16.700009761367138 39.189536414586236 C28.467380568100534 26.146028370762963, 40.06560043872656 15.561292787931453, 47.94664869582779 8.973230600478693 M16.808050266456004 40.41275755922519 C24.489844906566354 32.765316665913105, 31.76756306015034 25.359360979721806, 46.662717284956344 8.320096424902424 M25.268300932629586 41.931920882535444 C29.35410743682081 36.045188033641516, 32.15293709626005 29.0029348081054, 46.16686040366102 11.992717705838123 M23.75428772511202 41.00038080218928 C30.136269382105127 31.826272028702306, 37.90535194338123 22.703470958365, 46.33353095797855 13.347045167520383 M28.481354379222815 39.37419582365175 C31.414443473285814 35.5987884919655, 38.34556202061469 32.21957532946237, 46.826626325971795 18.733691856485635 M27.504147665702824 40.62892750019302 C32.69679072187264 36.380017038851015, 36.261880690463684 30.39508908467124, 46.49768703059794 20.504964865033358 M34.83708447686539 39.380995586743644 C35.78845387711414 36.14210050718458, 39.912921810789115 30.40735710808405, 47.48661186414802 26.895645466755397 M33.630899235589 39.21321393372125 C39.54234826932687 34.03524103637292, 42.563381804971726 29.235025251305245, 46.42518820757077 26.314318826590917 M38.15327107662897 40.36370721369031 C39.72009032886869 39.61414116293239, 42.26599885473711 37.0733581578799, 45.32306524089103 31.916732516497735 M39.16967729622129 40.00833315446954 C41.884367326357044 37.08678183503791, 44.31308919975174 34.816958124358585, 46.33445266445664 32.399055452118056" style="stroke: rgb(76, 110, 245); stroke-width: 0.5; fill: none;"></path><path d="M1.4663960877805948 0.4055532570928335 C17.914513738798636 -2.001745542223398, 36.26496941777078 -0.5331816875290315, 42.99416189827025 -1.1586648467928171 M-0.8914702059701085 -0.15831238310784101 C9.219750899004794 -0.11089559031515817, 17.908718395276082 0.18434394763917228, 43.77270694356412 -0.010783466510474682 M45.45556622184813 1.2894385810941458 C43.29015836573717 8.146225132320069, 43.89080170251009 19.321468333326266, 44.501819962635636 37.52915075980127 M44.95121880155057 -0.06488660257309675 C44.71778403457529 9.160807617915452, 44.56197501953966 16.782586623865427, 45.545711922459304 39.237943408079445 M44.163648480549455 37.653538977727294 C31.687806374769934 37.15113425921027, 21.678877492257016 36.9625974364144, -0.26959568820893764 36.87192509137094 M44.897082972340286 39.26989221293479 C27.55938225938189 39.815066840644974, 10.863820027563634 38.5917803013288, 0.7426623282954097 37.578639772720635 M-0.8472843822091818 39.26097700558603 C-0.45053241963660184 27.66623767490546, -0.17734651084219877 21.417176673692666, 1.2751908246427774 -1.2637036684900522 M-0.5092304768040776 39.46104481536895 C0.6747978340213194 26.835752732552464, -0.669913082259427 17.199379907853654, 0.395510065369308 -0.33363455813378096" style="stroke: rgb(0, 0, 0); stroke-width: 1; fill: none;"></path></g><g transform="translate(299.248046875 322.6982421875) rotate(0 22.294921875 19.2626953125)"><path d="M0 0 C0 0, 0 0, 0 0 M0 0 C0 0, 0 0, 0 0 M-0.5898538857372353 7.143219865162961 C2.3708081978246476 4.190641054371822, 3.7565410977860294 1.994072921031302, 4.841902557345575 0.41770006751988464 M-0.6264723475696394 6.733448753182881 C0.5557467952091693 4.827290185799545, 1.9488143616654854 3.8918166275819535, 4.608753431546039 0.4762485980835968 M0.9085153066645968 12.72254660022217 C3.0384588275510014 8.629303586672842, 4.9863274917637685 7.165538057428826, 9.128273615193498 -1.4057100971147656 M0.9318393618892538 12.198016349643051 C2.9944118038430156 9.060776405543843, 4.506786969908492 7.225834252653098, 10.372300533157718 -0.5823530462488768 M-0.5615419084718685 17.97085303524571 C5.220757890743958 10.526188918516443, 11.464324238897216 5.733625639216056, 14.981978656261642 2.129681742463725 M0.15192922944666343 17.9361515006988 C5.183290233033224 12.80221591590998, 10.475144589151622 8.075441921192484, 15.620766276962538 1.0469205954042247 M0.3566828688792203 23.39912085579252 C5.416389404995116 14.786109723447701, 13.983312652611145 9.670192455279722, 20.158557638803387 -0.4669955266476151 M1.0750734463519667 24.830686042732655 C6.029823585572402 17.831321988895827, 11.981156257836298 10.531935656835493, 21.694286831932033 0.7168859861954573 M-0.06098193390766227 29.48156381747519 C6.00894111033145 23.73086619501529, 12.522332736592794 16.824095433240068, 26.343058076363416 -0.30701962727934706 M0.6862090416764275 31.137146237071804 C6.156461808574151 22.042242601026388, 14.653503130376608 14.136172222135578, 25.558795591492565 0.5585731718701066 M1.5735173410642425 35.5762042736647 C10.168205946961749 25.33818755245156, 20.10332149643376 11.885458537801071, 33.12060828082899 1.578156588716734 M-1.0707936762925705 36.0390854429466 C6.5162471291893205 28.380185279961303, 14.632417047260317 19.93195885199532, 32.77808908042202 -0.16616625606424762 M3.0168020636632207 42.032795212063704 C14.008327747467838 26.137001489522195, 26.667761690022786 12.310069885675205, 37.41499107312535 -0.13072203462007437 M2.875292375203884 41.218623591419075 C9.246548931128483 31.522607802186016, 18.139025397171917 22.149872039313994, 37.16965739503627 -0.6326970727089325 M8.864148112795515 39.41328731626595 C16.119827265328702 30.95474849766018, 25.708128170695026 17.68943182700128, 41.79961601513975 0.8591104008584267 M7.099387850462659 40.67066424694235 C15.701021160505386 32.00682861062648, 24.043856838613245 22.16874494284757, 42.02190643511318 -0.9600270615563744 M14.268044905395854 41.67461938553352 C26.039035933370712 27.00182215541296, 37.53726782265494 12.117915683093148, 44.99942911981642 1.9370366496370792 M12.304916004309106 39.47943502713788 C21.654796673732925 29.471257784464605, 28.924432802340426 19.475590785593152, 46.50231761398762 1.8675387877376437 M16.624931512389477 39.087380013905694 C28.255455179369655 28.820112895631794, 38.96679121209608 15.73005492403492, 46.2018850830806 7.488879680755183 M16.916788808059092 41.33089928190433 C24.86967709145682 32.615403806495834, 33.44095561646547 23.445080052992754, 46.87467009047545 7.493971637571796 M24.605873745663644 41.90917884953068 C27.84839358002992 33.021315267122255, 34.721689931924516 27.67952071583624, 44.743683399800545 13.815564356915393 M23.0183340364905 39.779877352749274 C29.87495621963125 32.98066424954077, 35.909927837696614 25.456481774812428, 46.09202688483555 13.703930481508115 M29.97059192614359 42.359823236447774 C36.82709545615923 34.18088553542547, 42.83291873388672 25.228264737770623, 45.26873710287304 21.863003656488686 M28.071573035919194 40.81897321457138 C34.77564379184974 31.559235284866077, 41.31999672776387 25.414101107597546, 45.86095361785532 20.74639836627695 M35.78433275691376 38.60272180162935 C38.636396580144805 36.13399040800778, 42.99463440352809 30.55126212181442, 44.84398473220908 26.84135964245654 M34.127542105299916 40.36117774964875 C37.78868498139948 36.94772830106973, 40.58164269978298 33.0699263685313, 45.62260069245503 25.61237667480602 M39.928867993304536 40.402472060015235 C41.71285205907847 37.01853437513941, 43.506507352903306 33.83726469186343, 45.88546216061836 31.378444674224024 M39.3121395915151 40.7057892818747 C40.03163517243957 38.47893011815066, 41.72101799080435 36.821706928312075, 46.27291620334176 31.972540975580355" style="stroke: rgb(250, 82, 82); stroke-width: 0.5; fill: none;"></path><path d="M0.5856385175138712 1.356878912076354 C15.603792212643386 2.184931586062703, 28.847281982602002 1.7704006531594132, 44.210808807983994 -0.39568605460226536 M-0.09705508965998888 -0.9462329773232341 C13.404748783794277 0.6610377247970973, 25.10600315010743 0.0951513167065059, 43.75944765191525 -0.05005064886063337 M44.445955807343125 -1.6148799899965525 C44.55397483083698 10.404223745611489, 43.18016900989505 23.000817334124804, 45.9829245749861 39.9298935290426 M43.73809989076108 -0.5278293220326304 C43.46393171240152 13.10254677510693, 44.22009092856706 26.685037931145416, 43.79896645527333 38.087496873922646 M45.87357389368117 37.46315625868738 C30.177123637547993 37.68295057316154, 12.129959651556423 38.63036193151802, -1.370957201346755 37.050324415788054 M44.39481382351369 38.23580920416862 C28.422469870421992 37.871946787816526, 13.90928100003293 38.04754406808043, -0.8590292753651738 38.323239472694695 M-1.4522469695657492 37.11192271672189 C-1.7125934199143558 26.84404628225184, -2.0969621375847964 17.571506380374554, -0.3883731421083212 0.8400572892278433 M0.17164017539471388 37.768297103233635 C0.4416892198573805 29.1220770469763, 0.6434680191528059 20.700494022274142, 0.19631861429661512 0.4958307119086385" style="stroke: rgb(0, 0, 0); stroke-width: 1; fill: none;"></path></g><g transform="translate(308.04296875 329.4609375) rotate(0 13.5 12.5)"><text x="0" y="18" font-family="Virgil" font-size="20px" fill="#000000" text-anchor="start">P5</text></g><g transform="translate(310.794921875 377.3525390625) rotate(0 8.5 12.5)"><text x="0" y="18" font-family="Virgil" font-size="20px" fill="#000000" text-anchor="start">P1</text></g><g transform="translate(359.5 377.63671875) rotate(0 14 12.5)"><text x="0" y="18" font-family="Virgil" font-size="20px" fill="#000000" text-anchor="start">P2</text></g><g transform="translate(413.6640625 377.26953125) rotate(0 13.5 12.5)"><text x="0" y="18" font-family="Virgil" font-size="20px" fill="#000000" text-anchor="start">P3</text></g><g transform="translate(469.78515625 377.40625) rotate(0 12 12.5)"><text x="0" y="18" font-family="Virgil" font-size="20px" fill="#000000" text-anchor="start">P4</text></g><g transform="translate(304.78125 195.02734375) rotate(0 99.5 12.5)"><text x="0" y="18" font-family="Virgil" font-size="20px" fill="#000000" text-anchor="start">Noeud Elasticsearch</text></g><g stroke-opacity="0.4" fill-opacity="0.4" transform="translate(10 10) rotate(0 487.220703125 249.400390625)"><path d="M-0.5848540641367436 0.5094700552523136 C295.0012164436561 -3.5656294465313705, 588.3731901191735 -2.8941877246151715, 974.0335962675512 -0.5956627868115902 M-0.015286995097994804 -0.31854037530720236 C336.11688727523546 1.8621739819766518, 672.6546023933472 1.8074881628276347, 974.5981450427323 0.33826398365199567 M973.6929542226779 0.4129121868973375 C973.9668980841749 192.30179853809364, 973.4755240388797 384.17949598155263, 974.1942741873388 498.8562044088303 M974.1894891195495 -0.21512371771803865 C972.7657381662998 153.79896712380267, 972.7860108624755 307.8255643199909, 974.5733818400935 498.7586943234425 M974.1859649799765 499.59523594155905 C733.1904526814305 500.24759350987864, 490.76829472248426 499.5951811668535, -0.3225820638239384 498.64197840467097 M974.4399578560144 498.4853551696986 C678.3840077723481 501.59726923364593, 382.81995107552274 501.37205195087387, 0.36524063237011434 498.93134638778866 M0.15656995254617342 498.6435023000874 C-0.926131783054789 336.14741199872384, -0.0946388516968093 172.79941995776062, 0.15655785422824062 -0.741276854846976 M0.2515779919893841 498.7226666226851 C0.44049377878466534 380.1213163901586, 0.03468106228231102 262.1926541002264, 0.22309717404431562 -0.26530393496499166" style="stroke: rgb(0, 0, 0); stroke-width: 1; fill: none;"></path></g><g stroke-opacity="0.7" fill-opacity="0.7" transform="translate(376.640625 84.1171875) rotate(0 107 12.5)"><text x="0" y="18" font-family="Virgil" font-size="20px" fill="#000000" text-anchor="start">Cluster Elasticsearch</text></g><g stroke-opacity="0.7" fill-opacity="0.7" transform="translate(605.23046875 76.59765625) rotate(0 21.583984375 16.359375)"><path d="M5.089680470913967 5.749404726436571 C5.089680470913967 5.749404726436571, 5.089680470913967 5.749404726436571, 5.089680470913967 5.749404726436571 M5.089680470913967 5.749404726436571 C5.089680470913967 5.749404726436571, 5.089680470913967 5.749404726436571, 5.089680470913967 5.749404726436571 M1.5848060551208798 17.81720615158172 C2.145445286259439 12.465007865929264, 5.612437510043956 10.724215892101142, 13.157509140922246 2.3459992303220374 M0.01937999554140335 16.13588419066125 C5.847383415019908 10.337546629177298, 11.698990148616225 5.893832376899611, 13.330812988915039 2.196045690419693 M2.9209481433094453 19.99169146502558 C10.355930261625211 14.783536965722096, 14.439638613265858 6.7362785773882585, 20.40687596071968 0.710916149462534 M4.15506835487345 20.208423871082996 C7.055693952653577 15.056056807141893, 11.632947748236848 9.530455591869543, 18.787178083513773 0.2746855430630575 M4.624548877925907 25.542596480603223 C13.17725553608118 14.580819823969858, 19.1046721813462 10.130256855440587, 23.981933568193952 0.4560409793804201 M5.250737088137601 24.27369160929591 C13.058001410711537 15.040447467434625, 20.56019562534385 7.094372217731024, 23.686546083129386 1.806749427708498 M6.371963317986706 30.02487699972091 C15.252055457519129 19.50435004505642, 20.82719028747262 13.476259246001185, 28.252302004465804 0.9302806782173718 M5.825490789968649 29.249477040074744 C14.569800617763423 20.213891357089167, 21.324901012395273 11.500330003225365, 28.238072102399514 2.038678036314508 M9.746053609057114 31.636867660616574 C16.01972024271846 22.430576878733245, 26.231962891287253 12.727024532217516, 31.666459732119492 3.2574046696568626 M10.831667924291239 29.32547832704806 C16.4129130155018 22.492020153666495, 23.523976151068254 14.877103535139176, 33.508734359767786 3.6959558804551857 M12.961687097759357 32.38055120786477 C19.789311476039288 27.048145359086444, 25.676532454421157 21.528619371283995, 34.710567501767756 5.663201743050683 M14.891698093586973 31.941330802681037 C19.312088148204403 25.215138694147452, 27.2753329999241 18.1075169646398, 36.98502929920632 6.208625899872947 M18.707767592687187 32.331672270371755 C25.136081563897875 26.70802568557295, 30.59433106207787 20.02684233101472, 40.43838155498535 9.255012991859546 M17.733883299808976 33.96297074627056 C25.890528813464876 24.31523383872867, 33.022907239493875 15.462757334455738, 39.69663479314924 8.39707240091913 M22.740794393396385 31.947527781152694 C29.970202604971348 27.40358351387645, 32.39033705790735 19.053759156811275, 40.47239945036603 11.612489294989695 M23.379706973372407 32.89667580372241 C29.451440435238027 25.61459259095111, 37.34180118203921 18.37753551196314, 41.811305968549675 11.969028537890603 M32.35692212092571 29.648123845395887 C33.142805212781006 27.49010990830818, 34.950104399267445 26.253838966824222, 41.14222214913707 16.40411995885505 M30.53173555126294 30.267219654082574 C34.38568876530947 26.382050618929327, 37.53788408882742 22.3082567122752, 41.333272520990704 17.79661970565638" style="stroke: rgb(250, 176, 5); stroke-width: 0.5; fill: none;"></path><path d="M19.078846133904698 0.4565939215864958 C23.326232578204596 -0.06934558801306834, 28.899215207671602 0.895763035811008, 32.66037253884718 2.6781928945237006 C36.42152987002275 4.460622753236393, 40.24799521760024 7.927835320177117, 41.64579012095815 11.151173073862651 C43.04358502431605 14.374510827548185, 42.82687497672131 18.73695305926262, 41.047141958994615 22.01821941663691 C39.267408941267924 25.2994857740112, 34.98723775675452 28.986458039076332, 30.967392014598012 30.83877121810839 C26.947546272441503 32.69108439714045, 21.23295144650354 33.72038575967121, 16.92806750605557 33.13209849082927 C12.623183565607595 32.54381122198733, 8.008781848222965 30.308991086307543, 5.138088371910168 27.309047605056755 C2.2673948955973717 24.309104123805966, -0.31915386323485545 18.761520653540167, -0.29609335182120944 15.132437603324533 C-0.2730328404075634 11.503354553108899, 1.12690483785574 7.997008778656916, 5.276451440392044 5.534549303762951 C9.425998042928349 3.072089828868986, 20.532952524014384 0.8343598037058397, 24.601186263396617 0.35768075396074295 C28.66942000277885 -0.11899829578435384, 29.83610772641074 2.5221542774027506, 29.685853876685453 2.6744750052923703 M18.872475636395272 -0.7262014099501535 C23.260572581973964 -1.4349449643910028, 30.526438539449433 0.1281829570942261, 34.345027106756476 2.0924135743176517 C38.16361567406352 4.056644191541078, 40.64487953646858 7.5184733119568605, 41.78400704023753 11.0591822933904 C42.92313454400649 14.59989127482394, 43.02918535521062 20.023608620805962, 41.17979212937021 23.33666746291889 C39.330398903529804 26.649726305031816, 34.6928294980214 29.36326281130006, 30.68764768519509 30.937535346067968 C26.682465872368773 32.511807880835875, 21.41955666979744 33.500895260666304, 17.148701252412334 32.78230267152633 C12.877845835027227 32.06371008238636, 7.749679726285944 29.422481883025117, 5.06251518088445 26.62597981122813 C2.3753506354829557 23.829477739431145, 1.0136470533918331 19.601733388143806, 1.025713980003367 16.003290240744416 C1.0377809066149009 12.404847093345024, 2.36670716931326 7.751342139209921, 5.134916740553653 5.035320926831783 C7.903126311794045 2.3192997144536456, 15.173979864533006 0.5994014273623094, 17.634971407445722 -0.2928370335244104 C20.095962950358437 -1.1850754944111301, 19.738174323923477 -0.5886982186957068, 19.900865998029943 -0.31810983848853525" style="stroke: rgb(0, 0, 0); stroke-width: 1; fill: none;"></path></g><g transform="translate(568.400390625 225.947265625) rotate(0 114.767578125 94.771484375)"><path d="M-0.3063154722155641 -0.2095081612456917 C61.24104938243186 1.7189259403742652, 120.29769026786394 0.5336944651363059, 230.3031001911474 0.7694894458318541 M0.628590337234258 0.020076106738202395 C74.9448244942733 -0.10449260323950571, 150.61204976266433 1.4826333866389854, 229.63469329955066 -0.25372036424612654 M228.21726152859625 -0.09609687887132168 C230.44120749042895 57.790118649217405, 228.27269210623172 113.94524935369773, 229.3101650830358 188.99434822238982 M229.1147613795474 -0.8807916166260839 C230.2642840980796 71.82183662624485, 231.0747337877063 142.4823992486934, 229.91436606366184 190.37988402228802 M229.64919579098864 188.3252961013275 C145.13878074349185 186.30383413057598, 59.526644622397214 186.40484205401688, 0.8353202161697888 189.38450862562695 M229.56143944599697 188.94787878996473 C149.6185966224073 189.69986856241343, 68.74789743054473 189.88194834869668, -0.35304823634110116 189.6714172287055 M-0.4598587993532419 187.69886516965926 C-2.0229134181031623 129.6026631770077, -1.2802921751031318 69.39463905606026, 0.9953608866780996 -0.934639161452651 M0.4245558651164174 189.2791337845847 C1.603157878076927 133.28618841560638, 0.4517831505893628 76.10072576604944, 0.11798417288810015 -0.7859905185177922" style="stroke: rgb(0, 0, 0); stroke-width: 1; fill: none;"></path></g><g transform="translate(578.744140625 369.595703125) rotate(0 22.294921875 19.2626953125)"><path d="M0 0 C0 0, 0 0, 0 0 M0 0 C0 0, 0 0, 0 0 M-0.49423294362145154 6.861716736157529 C0.03166770041332845 5.682847952598087, 2.5809784077935887 3.625497972781187, 5.000417939158624 0.9136955652234368 M-0.06250093538778517 6.197486183469288 C2.02546818974918 4.146968194529256, 3.609385124674624 1.5006405895743062, 5.352209020363635 0.620976412281137 M0.7615690195094453 10.678319333910524 C0.8010025166777417 9.181045352975245, 3.8702211505086144 6.8901093238619735, 11.099743160557878 -1.3992858131334422 M-0.2518976538349284 12.828530327647506 C1.7028519793017043 10.298380187169318, 3.8593875071797004 6.942373386261093, 10.343015269142521 0.1886676761403443 M-1.5428989464929561 18.885270719323927 C2.773462555097739 15.615306894699486, 6.944006351996519 11.604678603143453, 17.44606572529622 2.0765911105019024 M-1.0049700141465525 19.252764012572044 C6.103268803044287 11.30513833265842, 11.282594465819624 4.622554203618661, 14.857340658552427 -0.27110567903844807 M-1.2562716880627658 24.46970270918226 C6.787122584662224 16.342117492476838, 11.147797683288806 11.717347582380366, 23.157612130323315 -1.1076353682041642 M-0.08281475750736256 24.4091975490517 C5.8108577507365595 17.76812980144076, 11.303716333442846 11.663714672768496, 20.305085876302684 0.5975568019017103 M1.9640582753857032 32.197506617520204 C12.265816024422474 18.459335956227754, 21.530364195412314 8.737455305293192, 26.578312900524946 -0.3214025260868727 M-0.61381192127714 29.825243505414775 C9.657564797873198 18.87508286401956, 17.58651963694292 8.3768338421043, 25.296230187315853 0.2639481578034104 M1.1721602267492095 37.66693917270874 C12.656347405938886 24.783272838688188, 23.595327151008643 9.166794082706971, 31.02181197278837 -1.4184288399980183 M0.24727599033149872 36.57996305339162 C6.660870637147844 29.66621069928393, 13.408007875446133 20.694325506244766, 32.76468730386982 -1.083322207325768 M3.3531711608960393 38.905487737450514 C11.541700839284736 28.600454639980832, 23.402744286460983 13.469537143452431, 38.70290779303883 0.8972649091016969 M2.191793247577465 40.03223393654427 C12.624801443017507 28.361834513433127, 25.18553555019486 14.6498712043864, 36.616814509780454 1.088388743912848 M7.8933825817324355 39.590337370339284 C20.244001030005904 26.984636916060243, 30.738764354561802 17.090661079249116, 41.04852554816358 0.9711789943604714 M7.133527692257626 40.63496753182585 C17.044423441301216 27.834872248954674, 29.716307566546856 16.232108278767, 41.94863489232563 0.14933104052683177 M12.298799531193126 40.231161245637125 C24.303972424270725 24.995314299118363, 37.48716356054736 10.477869925656844, 47.199626876106855 3.6829305452631473 M12.833519766697336 39.71164926935781 C21.076306458639145 29.380253973038645, 29.844500706196957 19.93936933813734, 46.453997052340206 1.3857075053604007 M17.88187670520335 41.088782332383325 C25.035888484844733 31.902800655850804, 36.140697171515036 19.71014436356729, 46.322182097793885 6.346076905849024 M17.493048629712458 39.968750311538805 C24.73132420858327 32.2176391132829, 33.511739110257324 24.400914744286624, 46.641797336140044 6.493247113312229 M24.79219554065037 39.84854465372609 C27.386469072171003 35.53816202750789, 34.5310837995172 30.83823566281449, 45.293906333092934 13.626777313820758 M22.69055924358088 39.762848812376426 C28.773822996103245 34.36398520559811, 33.6312487537115 28.03011897603519, 46.42896595148403 14.089616670444348 M29.830491983459417 39.5954899287047 C34.65656453009823 35.565409406404434, 37.973580398016765 25.925904223597865, 47.86222823990078 20.273679122549325 M28.10194014211846 40.66955655926933 C32.55168953492427 35.27515166048256, 38.72103863340887 29.38888248150002, 46.20468570665957 21.03805703598711 M32.82146858147488 38.78610919140844 C37.93739672330574 36.018648360077876, 41.82327965798324 29.60388462852533, 47.61429612058245 26.742387813638217 M33.73167967645594 39.98587502212829 C35.78322910704685 36.41795369967152, 38.90250681385055 33.43884610408342, 46.75203051710532 25.719442368840117 M38.50779122764806 39.60591705649141 C40.7110740778697 37.35647626970177, 43.73894179338887 34.43507958327172, 46.84610145560031 32.997852748245364 M38.75245914900306 40.371148783415364 C40.07466423928241 38.48083135118693, 41.763700883419084 37.48452219491827, 46.26878047098903 32.53660457677616" style="stroke: rgb(250, 82, 82); stroke-width: 0.5; fill: none;"></path><path d="M-0.2462644036859274 0.5709696765989065 C18.005325556297976 -1.3454290067284091, 33.34022278251723 0.9829466308028714, 45.49433290399611 0.5959525462239981 M0.023598271422088146 -0.8878401843830943 C10.716356217451903 -1.2560024064614481, 24.23182515438748 -0.2124613624646372, 44.29161052685231 -0.01591456215828657 M44.49374687112868 1.3075600024312735 C46.1102960172725 9.880578677063568, 45.70418543253663 21.258076950694885, 44.04122322238982 40.06390235386789 M43.709052133373916 -0.6921261576935649 C44.638640038093854 14.564698140025031, 43.85560800822668 29.27195902984568, 45.426759022288024 39.262499240227044 M43.15854185260832 40.151501631364226 C24.892217268088643 40.37844383195934, 7.308931395116815 39.537145549812884, -0.18626046739518642 39.546368991956115 M43.89035083632916 39.302954819984734 C31.801711863898163 38.97276034690422, 19.42634784721667 38.12417912222427, 0.15098355989903212 38.65281051117927 M-1.844103580340743 37.801463996991515 C-0.4155960203356699 24.346223793622812, -1.3455751658625559 11.125028618940632, -0.934639161452651 0.033037519082427025 M-0.26383496541529894 38.94777506310493 C1.2330397453847581 28.6387538943045, 1.2235691931787187 20.328081915262374, -0.7859905185177922 -0.5483193723484874" style="stroke: rgb(0, 0, 0); stroke-width: 1; fill: none;"></path></g><g transform="translate(632.94921875 369.8798828125) rotate(0 22.294921875 19.2626953125)"><path d="M0 0 C0 0, 0 0, 0 0 M0 0 C0 0, 0 0, 0 0 M0.2024758950201918 5.694066806932084 C2.2886358037221672 4.847607072728945, 3.4920590331614214 1.7076753200228736, 5.540603597792334 1.0156234729883487 M-0.4617546576680491 6.621057992850535 C0.8545320658894507 4.953488788871647, 1.5754412072811375 4.2953085614321, 5.247884444850034 -0.030608204767364866 M-1.2293937391508711 10.514996041774332 C2.270507783719423 8.496288438187648, 4.963547493067952 6.62339440093045, 9.26529886121763 -1.4600592662498593 M0.9208172545861113 11.349874719649135 C3.691150449122813 8.189111671327877, 5.62358578125078 5.496322372275426, 10.853252350491417 -0.5571785312995552 M0.3183168051251908 17.63081707889276 C5.889590665389697 12.931011993475433, 10.725214415802663 9.805320677395576, 17.368083817421873 1.811916107956784 M0.6858100983733078 18.899575458747023 C5.3044094756976445 11.658265269186382, 11.195534753152106 4.487069537254545, 15.020387027881522 0.14018820570083168 M0.6542765630594705 24.544332630648373 C4.3443615647474845 17.40400163120375, 11.517075687449632 14.635092374930531, 20.22153398049798 -0.5360055869281766 M0.5937714029289101 23.899747968367397 C7.6684267785326785 15.598675511395733, 15.251109923757639 7.081355495770207, 21.926726150603855 0.7952375937416676 M1.7228396302600757 32.3322877583543 C5.16280078255694 24.818108242601628, 12.65332446783722 17.791526153274077, 25.63467485518417 1.326510829293424 M-0.6494234818453535 30.81960331718271 C6.175040792197674 21.436745315599243, 13.461587174243178 13.205095750879103, 26.220025539074452 0.7893728971493186 M0.5330313443112651 38.276655010694014 C7.879804102603828 29.32391521379072, 12.516286729181294 18.94664957530547, 30.5753251830552 -1.7822560499177094 M-0.5539447750058493 36.85239945426707 C10.199358784847641 25.364371982273408, 18.890556439499647 15.334767696227075, 30.91043181572745 0.15000967227511453 M0.7554135047688249 38.54566882068268 C15.327415779952323 25.210661865133495, 25.090440155546332 14.53208596973884, 37.51792696472381 0.6877013147902211 M1.882159703862584 39.71144527552626 C14.570737373241794 27.888104098209563, 25.17235854845175 13.618971999633743, 37.709050799534964 0.42633148386147823 M6.067171170226498 42.53929256722654 C17.072869506351587 29.421514124476015, 30.73811967391783 14.519938935217112, 43.62951769176476 0.042942766877914096 M7.111801331713064 39.88181768525715 C19.796434654222054 26.735851893260058, 33.701817471889946 10.320479250152125, 42.80766973793112 0.6203632632597333 M12.745671687306512 39.19700899490017 C21.836177557155242 28.50538989359049, 31.671019722869453 18.55338757423615, 48.14664005680978 0.9561762561427116 M12.226159711027194 39.83440201592494 C22.13214829782548 28.150928172226912, 32.898142267177214 17.090778481752736, 45.84941701690703 1.702817110657847 M18.230200806621607 39.04148189305537 C25.167350529699178 34.34361536013306, 29.102699480058227 25.885799574536513, 45.5613141854716 6.491081196936413 M17.110168785777088 39.97580370727204 C24.559861166856738 33.76939968280704, 31.904462619271598 25.363166776391644, 45.70848439293481 6.5441656532982435 M23.027639769746543 38.97692735515283 C29.194203695772547 35.53892032085149, 34.95157541718417 28.114647579197698, 46.18277375230599 12.145970147274175 M22.94194392839688 40.35296956564979 C28.301965409477283 34.624358280585845, 32.71668649063039 29.00316603079948, 46.64561310892958 13.864553724586704 M27.401493077294056 41.38929042054435 C35.11579553874328 32.82468097753422, 37.23067335834013 29.664818925899816, 46.17043471989722 19.708675030839473 M28.475559707858686 39.6596144058006 C32.4934327048292 36.66250595484927, 35.9929529630456 32.11828764241329, 46.93481263333501 20.99493458609733 M32.629788981779974 39.22015231852053 C38.16321043191208 35.17341986997033, 40.051254707174095 34.89836188521084, 47.39067117906206 24.142835682752793 M33.82955481249982 39.21656699608645 C36.35413014300596 36.21855629948796, 39.46597521339281 33.46118814061725, 46.36772573426396 26.54326983381181 M38.07650487943183 39.58260231058094 C41.64575696187578 36.81501506231163, 44.55381221326507 34.975832248448036, 46.98689527253186 31.25618985088951 M38.84173660635579 40.08329265693183 C41.05137070542359 37.59586755658986, 44.144408935675145 35.27541503340623, 46.52564710106266 32.545704861296706" style="stroke: rgb(76, 110, 245); stroke-width: 0.5; fill: none;"></path><path d="M0.5709696765989065 1.2772591058164835 C10.507428059585438 -0.06100566203804192, 24.768934889227243 0.9593936104038221, 45.185796296224 -0.7746412213891745 M-0.8878401843830943 -0.9335403563454747 C10.875503870805916 0.9215095744379141, 23.721089938018853 -0.3087556555025003, 44.57392918784171 -0.211829942651093 M45.89740375243127 1.2288773600012064 C43.47502632351052 15.296133035478308, 44.11099053831231 28.39811199281576, 46.12835547886789 40.0250548068434 M43.897717592306435 0.3782419739291072 C44.54620851592381 7.8583702732094025, 44.80709479765255 17.36323593058296, 45.326952365227044 39.495356249623 M46.215954756364226 36.52977883256972 C36.55568540690183 36.3294000092601, 25.857061183782207 38.02002251778595, 1.0209783669561148 38.17214196361601 M45.367407944984734 38.32664673309773 C30.90213222821876 38.22876791336766, 15.932245496132964 38.36447138765088, 0.12741988617926836 39.21071638446301 M-0.7239266280084848 37.86313002742827 C0.10727581437868139 27.84217946676199, 1.0839420860652353 19.408808633268563, 0.033037519082427025 -1.2459163721650839 M0.42238443810492754 39.444602387957275 C-0.8925520948400845 31.015794472526068, -0.04557763256934777 20.900725380031872, -0.5483193723484874 0.07557736616581678" style="stroke: rgb(0, 0, 0); stroke-width: 1; fill: none;"></path></g><g transform="translate(686.61328125 369.5126953125) rotate(0 22.294921875 19.2626953125)"><path d="M0 0 C0 0, 0 0, 0 0 M0 0 C0 0, 0 0, 0 0 M-0.9651740342052528 6.864333165486448 C1.841591812272044 4.500587686833867, 2.35258929099558 3.9494467492631573, 5.642531505557245 -0.4223408069613165 M-0.03818284828680257 6.45586863500356 C1.1143777392453362 4.297494720730301, 3.2802527249345292 2.996224452071642, 4.5962998278015315 0.12834224699411925 M-1.3927170312870636 11.536361335634767 C1.7765754372348863 9.165134771027844, 5.0978809059222625 5.539898151416052, 9.204525408101214 -0.6554146488115429 M-0.55783835341226 12.765021030276596 C1.79129068369032 9.150967306932285, 4.600796528537398 6.7578412686965965, 10.107406143051517 -0.0994578626856445 M-0.9361368353059749 19.89913982609349 C4.724724825906989 14.286311583061815, 11.942954276021414 8.519411299512345, 17.103408814876754 1.6848682525497845 M0.33262154454828696 18.134893771168464 C4.998347348414114 12.097618207508704, 9.713431725604673 5.700764160783912, 15.431680912620802 -0.29270154452650043 M0.7289064845255826 23.00527172134733 C4.320265589720881 19.43627271859784, 12.259014178094283 11.600541492377495, 20.793163761773968 0.6051663862704757 M0.08432182224460583 24.259038756317555 C4.24806804304561 19.71183080429916, 8.184546080581072 14.568881167235983, 22.124406942443812 -0.9552594996825334 M1.8576207710941688 30.352736960862032 C10.837740422923611 20.39243387764004, 20.344113213358767 6.284603823493992, 27.282588210564466 -0.247911608404225 M0.3449363299225823 29.562077167209438 C7.778463718096214 20.02028669124745, 16.338787641131947 10.954841530803062, 26.74545027842036 -0.43303413651764977 M1.1427471822965423 37.86987039800857 C11.713611191899284 22.24602275918663, 20.894482169137135 9.80089382050721, 30.211497973135508 -0.08550608332611276 M-0.2815083741304001 37.62990611307447 C8.713425478561742 25.95344027153113, 19.191140369158514 14.412470922850549, 32.14376369532833 0.3131698864757304 M0.39559458800098923 41.72673752048961 C12.250148258676482 26.551217470790927, 26.793732943155028 14.545135225452356, 37.30836337041234 0.8434403055441102 M1.56137104284457 40.92198927497468 C10.319636913751465 31.622746294820196, 16.63658936788723 24.111489516735038, 37.046993539483594 0.2603315441962799 M9.016126367113753 39.555601511898885 C15.276935569197416 34.52639499815676, 19.77526215779081 25.437431380090402, 42.701281464282204 1.1520059563546425 M6.35865148514436 40.58557396736319 C20.25099796192459 27.553308914874236, 30.87608739763045 12.861320114985077, 43.27870196066402 -0.18321319684842763 M11.71151943656956 39.633713671498484 C24.166237326671318 26.049551180671095, 37.34956763693668 15.109396777988746, 45.419885767689344 1.7998861235903263 M12.348912457594324 39.23223155786145 C20.348120534530985 30.80356356045818, 28.975546768561657 21.61996376022793, 46.16652662220448 0.9005744236858249 M16.18290036729365 41.80197509332769 C27.668434068256794 29.067880830442938, 35.3974609581486 18.810067020276467, 45.70631847655899 5.993216276290461 M17.117222181510325 40.450269146368136 C24.623922347538713 34.363707636075446, 29.920800949070532 25.99347476125859, 45.75940293292082 6.433009318197712 M22.156022471173287 41.13830792553471 C29.7125280846564 35.78680466296535, 33.30738380933932 27.23794350234818, 44.70196658575941 12.103233777157703 M23.53206468167025 40.071850824390815 C29.750475290175526 32.47514673543664, 36.05297191834443 26.32862851546892, 46.42055016307194 13.851094230249265 M29.195293569133703 41.93283201215883 C32.863617042019435 31.80036780748133, 41.956360203840504 26.97877727654926, 45.60543062818737 18.396164104563027 M27.465617554389958 40.741924316828154 C32.333380568315306 36.39024512312483, 35.64733721604016 33.22018367794185, 46.89169018344523 19.431155956570834 M33.063832108892065 41.51594114624529 C36.13840281199912 36.22615392548481, 42.97305695979096 32.27319126577115, 44.79111904817664 24.76192571253634 M33.06024678645798 39.448841930642786 C37.21270518519297 35.34906159653968, 41.60058264869539 31.71337093653841, 47.191553199235656 26.518831482325933 M38.05319013352136 40.5565024664903 C41.27792265848066 37.509434769410596, 45.42636730319375 34.731866110450426, 45.245232375176 32.446471586436395 M38.553880479872255 40.18021117046456 C40.19901446998334 39.29310704979729, 42.00656373301102 37.49842486629186, 46.5347473855832 31.825538952121875" style="stroke: rgb(250, 82, 82); stroke-width: 0.5; fill: none;"></path><path d="M1.2772591058164835 -1.4257031325250864 C12.458301748587475 0.7753752616785278, 26.05291288806257 0.4686553028963317, 43.815202528610826 -0.7063976768404245 M-0.9335403563454747 -0.9265411524102092 C17.603597672305117 0.5128864425527354, 33.044898107877096 0.3799719888078471, 44.37801380734891 0.7568382890895009 M45.818721110001206 -0.8609553817659616 C45.39409967628353 8.794005573300637, 44.02271237340801 19.57650520939751, 46.0895079318434 36.815112387761474 M44.96808572392911 0.11832353193312883 C43.845725283164484 10.317239341068673, 45.08743061139057 20.613167670040642, 45.559809374623 37.736056801863015 M42.59423195756972 40.348558222875 C29.037151558235564 39.869800119198224, 17.051964850918008 39.908909170425794, -0.3532486613839865 38.85925695858896 M44.39109985809773 38.95898461062461 C31.090413347819776 38.457118045544306, 17.711406334306957 38.99952517077891, 0.6853257594630122 37.8851256640628 M-0.6622605975717306 38.544085239991546 C-1.2370156891706756 28.848946318049457, -0.57941510752471 17.214817756825138, -1.2459163721650839 -1.6292007807642221 M0.9192117629572749 37.79640033561736 C1.011384661782813 25.45013955581362, -0.6843470674862147 11.590600768502554, 0.07557736616581678 0.19504219014197588" style="stroke: rgb(0, 0, 0); stroke-width: 1; fill: none;"></path></g><g transform="translate(741.234375 369.6494140625) rotate(0 22.294921875 19.2626953125)"><path d="M0 0 C0 0, 0 0, 0 0 M0 0 C0 0, 0 0, 0 0 M0.2050923243491104 7.191726943154924 C0.7443412848671704 4.821729926273352, 3.100771508314311 3.828218867616336, 4.204567225607581 0.4039017427561098 M-0.20337220613377782 6.200376003657572 C1.3221560829980583 4.622070625045652, 3.700836119405311 1.7545506095013974, 4.755250279563016 0.02559922559533656 M-0.37135173742662797 11.460461272716104 C3.445009526918938 8.513734025429539, 5.993919212733097 2.521632947382121, 10.009170025539529 -1.255086283843243 M0.8573079572152007 11.292581328421413 C2.5729887222263788 8.803034451014584, 5.525138025252672 5.5260106740303865, 10.565126811665428 0.1349367993965508 M1.3321859118947526 18.106469952408844 C5.141555976717123 16.178414992163884, 8.802141215768804 11.682972393104366, 16.976360959469755 0.9578399012726715 M-0.43206014303027196 18.18515266655075 C2.861165230958789 13.760287372764559, 5.814087371205775 10.488612942226776, 14.99879116239347 -0.31383476807503197 M-0.81015442477546 22.996118850722073 C6.015565427076781 20.52392481086892, 8.580677057565515 12.752812419940954, 21.93433573497262 -1.882515341585922 M0.44361261019476395 23.584663898400127 C6.5066407601971195 16.762727977249476, 11.984265191801615 12.17995156887127, 20.37390984901961 0.7995438207104328 M-0.12193002639809691 31.456191211704365 C12.005789544712131 18.553705504365862, 20.01987858661706 7.244175096778498, 25.708165772866817 0.8065982883807958 M-0.912589820050691 29.51729180733507 C5.655263603284938 22.250361980257587, 12.673645200104827 16.510658934750428, 25.523043244753392 0.7570437252533377 M0.7359625696111003 37.9698314590392 C9.850905112500461 22.047794612418627, 22.16365181269197 7.501374839805948, 31.908247939727104 -0.26786874036647035 M0.4959982846769968 36.653833404929685 C10.888128665994978 24.802014975785728, 21.40138336575498 11.223403720324555, 32.30692390952895 0.2198695644050126 M3.576663287807918 39.09394590074173 C14.329084827565866 27.88535693401117, 28.21563251577508 11.996925132040555, 37.464102361166226 -1.4797370134759227 M2.7719150422929886 41.09138664958975 C12.740687788381523 27.842761889956023, 24.48573511555062 15.930514584948504, 36.880993599818396 -0.7227560345921198 M6.032435311786099 41.80466979071821 C21.311077375866166 24.94698244559785, 32.50263414278895 12.742840982801305, 43.81034465375893 0.7412251875131375 M7.062407767250402 41.60506750811214 C18.81814026642733 27.91407059231376, 28.915141436820775 16.8533748316258, 42.47512550055586 0.37748092211326423 M12.14822411316787 39.80515774854321 C21.400773707654526 30.692351440209805, 33.297568495549875 18.207424090101327, 46.26359563513696 0.5188976873980522 M11.74674199953084 39.86205037546206 C22.920209191227425 28.688610009628356, 33.31308121778015 16.479675402701684, 45.36428393523246 1.8438315972091317 M18.943393567565973 41.56924543856852 C25.422241846957565 30.310966583863845, 34.38837274088506 19.469578253317774, 45.20845355591304 5.555631775530621 M17.591687620606418 41.37147975388192 C26.46915713924065 31.6110316056566, 33.036343235434146 21.530944246738873, 45.64824659782029 6.805557680437907 M24.317403041555167 41.13982082925485 C33.918678198819876 29.48405899518348, 40.31674825668007 19.0844765339913, 44.659230215642935 13.175911884926 M23.25094594041127 40.18909151222305 C28.14242800715524 34.11035294432634, 34.46944266047667 27.96253998693393, 46.4070906687345 14.147843067705372 M29.738835160748188 39.229000834953986 C33.11958143571822 34.64991831269327, 41.79852470105347 24.774976803862987, 44.292919701910925 18.181241814267665 M28.54792746541751 40.923639527727865 C33.14842371966678 35.241495679734996, 38.93379281727063 30.327657475435046, 45.32791155391873 20.272930083085626 M35.35962093661682 38.33844424788474 C37.50117975833726 37.95158540700271, 40.9660811921816 31.713315301902703, 45.41020907796019 25.656753394129936 M33.29252172101432 39.69220789949975 C36.771916344392096 36.66383540822322, 40.712108256135885 33.201126565420445, 47.16711484774978 26.755166907497934 M39.027090289430724 39.89092836718056 C41.155556013539815 39.08833037215014, 43.54457379751746 35.35589737929418, 46.43551411072289 31.136128170214956 M38.65079899340498 40.233777908775764 C41.30769881877902 38.49601412772986, 43.054224731149226 36.620088383756254, 45.81458147640837 31.99693717391639" style="stroke: rgb(250, 82, 82); stroke-width: 0.5; fill: none;"></path><path d="M-1.4257031325250864 -0.11591011844575405 C13.730581065929075 0.6197252342130014, 26.25176966806976 -1.0594051411722831, 43.883446073159575 1.4777412358671427 M-0.9265411524102092 0.9320320067927241 C13.599177340134702 0.11803096308995009, 26.948440334937914 0.20443424358654738, 45.3466820390895 -0.658947360701859 M43.72888836823404 0.822766775265336 C44.61672388233228 10.823888170071768, 46.38022677816434 24.244681577207302, 42.879565512761474 37.684600884094834 M44.70816728193313 -0.40479005593806505 C44.702409257792624 9.001248350813512, 45.060308059357794 17.298631781673976, 43.800509926863015 38.59241397958249 M46.413011347875 36.648507649078965 C35.385836338917215 37.8942100675542, 25.239068663333455 37.7272218735654, 0.3338663335889578 38.587179297581315 M45.02343773562461 38.540670710615814 C33.916931358426154 38.58775459403714, 24.20141333114225 39.12209679360112, -0.640264960937202 38.29546122532338 M0.018694614991545677 36.93315088190138 C1.1348086673174294 29.58537481532676, 0.17248529972175675 21.268720956393736, -1.6292007807642221 0.8491117302328348 M-0.7289902893826365 39.435131835751235 C-0.044741081831034535 27.198217429297983, -0.7110446270676221 17.518602636797368, 0.19504219014197588 0.8815603433176875" style="stroke: rgb(0, 0, 0); stroke-width: 1; fill: none;"></path></g><g transform="translate(580.74609375 321.7041015625) rotate(0 22.294921875 19.2626953125)"><path d="M0 0 C0 0, 0 0, 0 0 M0 0 C0 0, 0 0, 0 0 M0.5324861020175865 6.016768778164975 C1.683964838035728 4.759326368672988, 4.204987323209193 1.2618525362838677, 5.0308097753250065 0.7580191526410395 M-0.45886483747976514 6.115568301503651 C1.3817626518607864 5.1420620617628146, 1.937580724426203 3.140458291782681, 4.652507258164233 0.5172132849541717 M-0.447251800345291 11.68852412593323 C2.973134241878788 8.11488080162352, 3.3330937365356523 6.264467308182367, 9.40949839050783 -0.8045808990404247 M-0.6151317446399821 11.955733076899826 C4.13297104252645 7.35746927696667, 8.079963744859667 2.2578107347366285, 10.799521473747623 -0.6003298309549927 M-0.46048396178989215 20.138997320924574 C6.849052259658903 14.236241819684373, 11.581637751865388 8.006120442762912, 16.249332608192642 -1.42770459624706 M-0.38180124764798684 18.232291664835685 C5.033928332804293 10.981220982673861, 11.613761886902234 4.051095355054352, 14.977657938844938 -0.435668679240627 M-0.8193072954007175 25.177900898917674 C8.813293938989927 15.442346520198011, 13.154278789675676 9.441429742534329, 19.446654007116223 -0.767200697755861 M-0.23076224772266407 24.835897366232334 C6.34081963225412 16.67493575979328, 15.145816597423222 7.086018600882031, 22.128713169412578 0.9106225095852736 M0.9815242244442359 32.29633362195288 C10.183223187088812 18.23390793864246, 21.01443313797109 6.657693183507561, 26.762675669651838 -0.9461740018788038 M-0.9573751799250587 29.68318531173115 C5.106980012668694 23.611667429678896, 12.711982502221078 15.833267542456227, 26.71312110652438 1.0055092725914658 M0.8359236306417266 35.19020846840118 C9.529484849306243 22.848466020500922, 19.632485055998792 11.627056896116837, 31.725885282686747 0.9043132645323162 M-0.48007442346778717 36.64813854806249 C9.315267977571454 25.660791297094285, 17.38261461842256 17.06257178259634, 32.21362358745823 0.5200228887855296 M0.9438716680600407 39.60966905096522 C12.356884075092829 31.342793726441176, 19.04533546233875 21.990546107506567, 35.14092504214619 0.42789657051679697 M2.9413124169080618 40.07205669378838 C11.716074731905756 29.752600399211197, 21.798730512074496 17.82063889432369, 35.897906021029996 0.6567282705661377 M8.281503590605421 42.57955667823876 C14.040234890474263 31.77779347146617, 24.503731214881554 21.823023023539516, 43.39956388491743 -0.057267560777162885 M8.081901307999356 41.57777300086195 C17.514951485959944 28.61232867906396, 29.539173967984453 15.977565911872667, 43.035819619517554 -0.35670267805913625 M12.319668190212596 39.582200774483866 C23.991297472605225 30.706296410909506, 32.265027797640144 17.258056069294092, 44.982607198944685 1.9260942501352787 M12.376560817131448 39.84619477440465 C21.475076138633035 30.623250559417514, 29.518609766042985 20.554393609512346, 46.307541108755764 1.8108547407539248 M18.710663912806805 39.47608055873983 C27.103000010176125 28.57332466407208, 35.87879598380856 17.416595545204075, 44.7708690551532 6.914195597293421 M18.512898228120203 41.12871505181514 C24.866637611016422 31.81219421462145, 30.874431886709623 23.825701043494217, 46.020794960060485 8.087551376903996 M24.318915945275307 42.16919630415486 C28.991452929133104 32.45530010168926, 34.899274617294026 23.45463635515992, 45.73190832341123 12.420851968399921 M23.368186628243507 39.514333862101005 C29.337250713537912 33.72752226788766, 35.24296263508904 26.685574153880545, 46.703839506190604 14.510975911453107 M27.03500398354334 38.59424597976824 C34.53388898220364 35.38478922342569, 36.74812783090246 28.363935113847923, 44.07799741161556 19.667366966825753 M28.72964267631722 40.4985848676609 C34.20253966406043 35.01857610811903, 40.42009692578964 27.04950183043552, 46.169685680433524 19.55179107863161 M32.18212403825627 40.58566348575621 C38.06250026929306 37.72200559679689, 38.08226514656378 32.47111289322385, 46.305036759553786 25.2837715986476 M33.53588768987128 39.51089059384174 C37.94879948737423 36.10131880610125, 41.90890401544783 32.85074178897811, 47.40345027292178 25.402475385164163 M38.36151619012098 40.76358058660272 C41.269650024083695 39.49072652883782, 41.23877188071629 37.133277393415284, 45.12517069450145 31.749083745092516 M38.70436573171619 40.95380292877536 C41.096031338396415 38.60540679990353, 43.34105969887264 35.61769141195739, 45.98597969820288 32.460501416990894" style="stroke: rgb(76, 110, 245); stroke-width: 0.5; fill: none;"></path><path d="M-0.11591011844575405 0.9026725050061941 C15.554414712272774 0.9138119457898938, 28.525209895164153 -0.38853827727452883, 46.06758498586714 0.04719654284417629 M0.9320320067927241 0.11699989158660173 C9.119854392190973 0.39722868998087507, 18.624345288026234 1.1699815412286625, 43.93089638929814 -0.04804843943566084 M45.412610525265336 -0.22499116696417332 C44.27793812401114 15.614841909332426, 46.326222833464726 26.44238212369055, 43.749054009094834 36.76380739174783 M44.185053694061935 0.37920981366187334 C45.572478220251924 9.62828274403455, 45.7055285725869 16.993014434478027, 44.65686710458249 37.80973967630416 M42.712960774078965 39.507259940728545 C27.401228372908008 39.95284278355266, 10.231885269222403 39.265730750185504, 0.06178867258131504 37.126404797658324 M44.605123835615814 38.110403385944664 C27.89672758890265 38.84614939187868, 11.586970067470247 38.07846454476221, -0.22992939967662096 37.60333883482963 M-1.5922397430986166 39.5207515116781 C-0.8070699203676668 28.395288762975724, -1.1183471310800996 16.569911082022372, 0.8491117302328348 -0.5276699308305979 M0.9097412107512355 38.6433747978881 C-1.1401204408680314 24.792201517960166, -0.27855255618442243 12.350693345759282, 0.8815603433176875 -0.20066771190613508" style="stroke: rgb(0, 0, 0); stroke-width: 1; fill: none;"></path></g><g transform="translate(589.787109375 328.466796875) rotate(0 13.5 12.5)"><text x="0" y="18" font-family="Virgil" font-size="20px" fill="#000000" text-anchor="start">P5</text></g><g transform="translate(592.5390625 376.3583984375) rotate(0 8.5 12.5)"><text x="0" y="18" font-family="Virgil" font-size="20px" fill="#000000" text-anchor="start">P1</text></g><g transform="translate(641.244140625 376.642578125) rotate(0 14 12.5)"><text x="0" y="18" font-family="Virgil" font-size="20px" fill="#000000" text-anchor="start">P2</text></g><g transform="translate(695.408203125 376.275390625) rotate(0 13.5 12.5)"><text x="0" y="18" font-family="Virgil" font-size="20px" fill="#000000" text-anchor="start">P3</text></g><g transform="translate(751.529296875 376.412109375) rotate(0 12 12.5)"><text x="0" y="18" font-family="Virgil" font-size="20px" fill="#000000" text-anchor="start">P4</text></g><g transform="translate(586.525390625 194.033203125) rotate(0 99.5 12.5)"><text x="0" y="18" font-family="Virgil" font-size="20px" fill="#000000" text-anchor="start">Noeud Elasticsearch</text></g></svg>