<svg version="1.1" xmlns="http://www.w3.org/2000/svg" viewBox="0 0 994.44140625 518.80078125">
  <!-- svg-source:excalidraw -->
  <defs>
    <style>
      @font-face {
        font-family: "Virgil";
        src: url("https://excalidraw.com/FG_Virgil.woff2");
      }
      @font-face {
        font-family: "Cascadia";
        src: url("https://excalidraw.com/Cascadia.woff2");
      }
    </style>
  </defs>
  <g transform="translate(286.9140625 227.19921875) rotate(0 114.767578125 94.771484375)"><path d="M-0.5409416349595555 -0.7342115764544654 C92.41331762891143 -1.1794267152870737, 184.101995666842 1.2113611019973476, 231.0982753595633 -0.9354024493253035 M-0.003266514901053319 0.5605923018802363 C86.52069537044765 2.1957310177792526, 174.04143153409572 1.0462354603691826, 230.23330473285972 0.6223366295784526 M229.0122132245451 1.017218267545104 C226.01515447048698 41.91167443686318, 227.71892624048743 82.19129868174278, 228.53386789001522 188.35254392586648 M229.69112240057436 0.6420543761923909 C229.17737842886302 66.88518057622679, 228.92140595404956 133.20929756758198, 229.1364923296496 189.636869517155 M229.77398893432144 188.94192285674538 C145.6903799015003 189.3797521732142, 59.196443555382345 191.305292172478, 0.9498825458995731 189.58151685579534 M229.6896096650544 189.23632594830795 C169.07056122188305 190.17783785161205, 109.17240771553757 189.79400580040712, 0.43803005460916095 189.28043675443294 M1.5540548507124186 189.32466748915613 C-0.22490388144735318 133.54992427336364, 3.062665343387089 74.66022706282018, -0.989304369315505 1.2887887712568045 M-0.03771181125193834 189.15612780768424 C1.194322613740187 141.9572113994862, 0.5858129837753585 92.03954213026518, 0.6644997773692012 0.06875338871032" style="stroke: rgb(0, 0, 0); stroke-width: 1; fill: none;"></path></g><g transform="translate(54.0859375 236.0078125) rotate(0 104 37.5)"><text x="0" y="18" font-family="Virgil" font-size="20px" fill="#000000" text-anchor="start">/movies</text><text x="0" y="43" font-family="Virgil" font-size="20px" fill="#000000" text-anchor="start">number of shards : 5</text><text x="0" y="68" font-family="Virgil" font-size="20px" fill="#000000" text-anchor="start">number of replicas: 1</text></g><g transform="translate(62.12890625 330.9375) rotate(0 9.8046875 12.654296875)"><path d="M0 0 C0 0, 0 0, 0 0 M0 0 C0 0, 0 0, 0 0 M0.5074520722357679 5.599117180009477 C1.3570458749748133 3.305999941910548, 3.4044329456170255 1.9496835139692146, 4.380269106062597 0.10937318688605369 M-0.15271244232075903 5.99783502188801 C0.46487535116399487 4.934034547214204, 2.1412293633479487 3.989783220626034, 4.64282906498248 0.5411502085474544 M0.923228293014656 12.533110703944743 C4.657509507553442 9.214842388568941, 6.66534982460073 5.294862538698156, 9.859760492992532 -0.6026318599388241 M0.17679536203850377 11.869099554091274 C3.103440562130961 8.219938653395882, 6.267352304501139 6.2611390018543425, 10.758867298764121 0.18198954044727111 M-1.2825392606249313 18.707667254750305 C3.4796630332828578 12.327377799723369, 10.49494684728442 7.290445192334536, 14.40229092305847 0.023112292115109234 M-0.5849116948014359 17.88789712069618 C3.880587134420981 15.450393917321675, 6.477321251316744 11.418959103594563, 16.03790757479467 0.8745082502183488 M-1.2784963117726829 23.66489160777545 C5.413155782338392 19.317812258992753, 9.912097804938204 12.864325167890053, 22.46771641993704 2.316626556847451 M0.566949908826432 23.19940614765054 C7.916259341241752 15.437186512042544, 14.99113656757331 5.954033493769067, 20.012190506661263 1.6252668217534403 M0.9717903591829202 28.912531668984816 C8.473486840008265 21.49904692613067, 16.11969301542239 10.82226077512751, 19.75701122236714 9.04617294737076 M2.6241424156489632 27.59864934134625 C8.81459721522094 21.048090075205735, 13.201230982713863 15.971562528521488, 19.842177727905067 6.118561768652252 M6.157033589826138 25.927872487061883 C10.554062596770063 24.736242214805422, 12.856464849057184 22.64344817190634, 22.26009477485708 13.192375495586333 M7.549151856609793 26.868728400857414 C11.831173060426535 23.548328399182598, 15.560257776047692 18.816004987535223, 21.22808531389377 13.063685335706708 M13.548410166486748 26.425860929603033 C15.573830373753232 24.34272367914619, 19.363975399905232 22.58996129771907, 20.011217265671977 19.606267908845926 M13.033667356812977 27.175695166990437 C14.501694766159225 25.65374748275265, 16.94660206331531 23.675598954076577, 19.996135581240917 18.69827873709322" style="stroke: rgb(76, 110, 245); stroke-width: 0.5; fill: none;"></path><path d="M-1.3696152409465867 -1.6504207326870528 C5.792362310341559 -0.5163956575277553, 7.7547911477668094 1.6045979010224982, 20.731756232918997 1.6832442328959587 M0.7687250251728983 0.3053776209744683 C4.874883179381868 -0.2471673946332885, 8.590233403210732 0.7128438229934545, 19.308237222077878 0.2080094212469703 M18.42257002554834 -0.26292175613343716 C19.919162888293975 9.940682545090022, 18.65337081647467 18.607965206298832, 17.799815392121673 24.056761855259538 M20.541645762510598 -0.35802285093814135 C19.508359670745666 8.025851859046453, 20.303559154378707 17.73365826306181, 20.585538891144097 25.71578316669911 M20.3318245145565 25.35661090688518 C14.832088565584854 25.82939469926423, 9.153756604318914 25.612016817046243, 1.0048119376951945 26.75751323473378 M20.56840757041573 24.957300287675025 C16.553645026917366 25.077507970020815, 10.967550442244828 24.45096176208899, 0.7591925336128043 24.33044627367417 M0.5531775113195181 23.74024265445769 C-2.079543431952952 20.02854837947998, -2.051020165637492 15.099013909800123, -0.1827248577028513 -0.3116061743348837 M-0.07955378573387861 25.167802589945495 C-0.05819569270312058 20.23771153249654, -0.07949591915308701 14.412741133922099, -0.8933629123494029 0.4788579819723964" style="stroke: rgb(0, 0, 0); stroke-width: 1; fill: none;"></path></g><g transform="translate(95.55859375 332.6015625) rotate(0 70 12.5)"><text x="0" y="18" font-family="Virgil" font-size="20px" fill="#000000" text-anchor="start">Primary Shard</text></g><g transform="translate(63.4296875 370.896484375) rotate(0 9.8046875 12.654296875)"><path d="M0 0 C0 0, 0 0, 0 0 M0 0 C0 0, 0 0, 0 0 M-0.8605017214687416 6.701541269620053 C1.5819550896962324 4.905853020842463, 3.381333395027288 2.542710738679428, 4.441996756526178 0.5647887144086176 M-0.05140290815847609 6.710358569447987 C1.724719675034074 4.515497093205138, 3.2613757886866144 2.448157291932675, 4.761202097641772 0.1258097052422577 M-0.3213622129429472 11.704797624468386 C1.561171925846169 7.501293253617235, 5.258341361145719 5.1271813712303205, 11.554675087285172 0.21974924011973163 M-0.41512487818490396 12.087183729975997 C2.9346984189592633 7.758692066023666, 7.013470179935898 3.302803828251563, 9.859025410515201 0.7142018768086793 M-1.1964935595682125 20.21970296362477 C5.123365288222134 13.669833673655187, 8.150706535948839 8.58532278902351, 15.738603772133072 1.1806499722343853 M-0.18071234231351418 18.994841065165275 C6.1088735702003705 10.875007782347474, 10.957945262128762 4.462399360422669, 14.980657244570036 0.3438179769483378 M-1.2943916002102878 24.38342343614912 C7.842098228771157 15.187285910462814, 17.711733627085472 7.412847553580207, 19.429463310034897 -1.1992415295203944 M0.2973835423774336 24.9613312880463 C5.293986886543615 17.691125498528372, 10.963009034934123 11.71494181886267, 19.936499393412795 -0.06046079501861534 M4.233398203565445 25.98478785782449 C4.287749410310395 24.655372484660823, 9.27330250884793 17.448874356212002, 20.675906783615204 9.05380995267009 M3.554290173402693 26.761063871638402 C8.15489453657591 21.34706123195125, 14.572136734062799 13.91423505668034, 20.671757608366164 6.768971506254128 M8.968288884655745 28.032209207021857 C8.911609739821653 24.366507791297316, 12.62492961376439 20.96047709875564, 21.286335082694805 12.838275130394635 M7.32782317154965 27.111771862671937 C11.421219126214543 24.131003455627322, 14.950165362465324 18.352502249429257, 19.91783692964158 12.063929098214743 M13.779563346005627 28.22098948538517 C15.980273407156517 25.440155900699544, 15.621355399147596 24.689363718563428, 20.078203869520614 19.11662228636154 M13.3487174052872 27.45658506618095 C15.468980871973594 24.19634586075426, 17.945046127023275 21.941920814958927, 20.543384169091397 19.534862867674686" style="stroke: rgb(250, 82, 82); stroke-width: 0.5; fill: none;"></path><path d="M-0.8413248086653766 -0.5742140863949317 C6.9949609726900235 -0.0007772623728669603, 9.011323703343805 -1.186310599900753, 19.599712209885183 0.27058336768095614 M0.6089362642997003 -0.49071098916829214 C6.422708184803923 -0.6767991128406721, 14.700356475648732 0.060544189272332016, 18.894097617598163 -0.9279634190643264 M21.308314794674516 1.522828733548522 C20.12015531476074 8.01598338939839, 20.257856528120573 14.51442330830978, 19.475507790222764 23.404510593041778 M20.370090353302658 0.4908192725852132 C20.09652400097915 8.085127012205703, 19.666799695111003 14.458179449396994, 19.872329789213836 24.399223891086876 M21.224142405080784 24.480379404507403 C14.9630424646748 24.180485982805113, 7.997045470729063 23.79350222287103, -0.8039577830422786 24.41557351616939 M19.703238219375635 24.453493731267372 C14.618577994766383 25.97918191880017, 11.8943254839578 26.36473590288806, 0.5659644156730792 25.195652705206157 M1.296018237248063 25.404923951253295 C1.8301021010875775 19.46317800086799, -0.15347735571860538 11.464095243231712, 0.2829629722982645 -1.0943641904741526 M-0.00013179797679185867 24.94657361228019 C1.0312583543792062 14.922989813115054, 0.42966095585969016 5.159657059176968, 0.30094148498028517 0.7464214833453298" style="stroke: rgb(0, 0, 0); stroke-width: 1; fill: none;"></path></g><g transform="translate(97.99609375 372.2890625) rotate(0 69 12.5)"><text x="0" y="18" font-family="Virgil" font-size="20px" fill="#000000" text-anchor="start">Replica Shard</text></g><g transform="translate(297 370.58984375) rotate(0 22.294921875 19.2626953125)"><path d="M0 0 C0 0, 0 0, 0 0 M0 0 C0 0, 0 0, 0 0 M-1.0010400563152382 6.775579894383542 C0.5372098140708004 5.73550822284313, 1.8529773857151113 3.1697423159546108, 4.2954579028808535 0.5877844009396845 M-0.46296185810583323 6.74828566056966 C1.0590898224755343 4.92372986308604, 2.254954684678818 3.362876945033095, 5.154431737171954 0.11373946665201723 M1.6652109586726533 11.17836468112427 C2.8669958716788724 6.392550385811751, 7.740707483181907 2.9200694093131796, 9.752049955678117 0.10202143593577162 M0.5290675551723347 11.600134317248642 C3.438961028313453 8.036288743186484, 7.304460409567294 3.6618890490073652, 10.804909280640018 0.27449667184499527 M-0.06847309419421954 18.895587031637007 C6.074412161254778 12.44649957576766, 10.19504925334983 6.17869146309271, 16.062926651447494 0.5703573587280681 M-0.11784145241139932 17.835567530152076 C3.9898496920561946 14.818330899327027, 5.787863587443821 10.348174831438815, 15.661761815197249 -0.057453276875896186 M0.27109644023694734 24.05662386463499 C5.332350550648686 19.944855616615527, 7.415477969604774 14.679364348475158, 21.121909961381817 1.5129676567554 M-0.24670872537426014 23.08347464603847 C5.226484153986544 18.545965397647866, 9.307595975516161 11.827033660898802, 20.56504578264233 -0.8778042770758745 M-0.4252968476573571 31.63636220595633 C6.169880655807861 21.77797886075075, 13.943753134257314 15.003344750018389, 26.320772734146924 -0.04277375955016005 M0.5325691886757866 30.78780204313641 C6.459843810776239 23.581710216533413, 12.779511048734427 17.034187561882007, 25.532206138272198 1.0590767715138139 M-0.21881804998037424 37.75454315897201 C7.887951966039244 25.898020698477538, 20.57524518107535 14.087501219699245, 32.920424531630076 -1.4916009920404072 M-0.3927780269738754 36.532493705676245 C6.905798191099368 29.722850318547636, 12.222106234330955 21.27971477514952, 31.00789878186474 -1.0220679145992513 M3.322935453136182 39.39763846138469 C8.51830164922223 30.533838299796848, 15.255576362531801 22.142169092437644, 37.645429424756514 -0.6410504466760436 M1.429336085435665 39.46256018972001 C13.75283613017869 27.80677975518634, 24.324471391085922 13.995305731244905, 37.62797318473582 0.7287875144836029 M5.596020790598555 39.63931754678811 C15.327449082705062 27.70692976558167, 28.443166494554234 18.172067300453666, 40.99497822541349 0.18836252469112935 M7.892191555201276 40.098295684720824 C18.98960769082265 26.53849831767058, 31.904677244841547 13.392316723984713, 43.43669462166332 0.28052590026995006 M14.678708629341472 40.823237964444345 C21.013034530891154 28.086800242986538, 31.173269076145004 18.99859746039631, 45.74479819654524 1.6477394265459537 M12.95507101214831 41.111818433300144 C19.480327694103632 30.863463491112057, 27.484260158020902 22.85460005928884, 46.2949038809821 1.7992328781040072 M19.018219290290173 41.48170705839269 C25.631995991775298 33.69577946443612, 30.11731867380695 25.550872716850435, 45.258125284076996 7.259621977927729 M18.23624580259263 40.83948241035663 C27.95689085816752 28.2586416269602, 37.02685997380148 17.01746342711457, 47.09723949650801 7.141770235384449 M24.461399835331918 40.009053226781354 C29.009534731986015 32.32726260718674, 37.98491322775893 25.096412774373185, 47.17244023287702 12.336653791539112 M22.949903076312125 40.548998582397864 C29.107617512244712 34.03218389808825, 34.28477725344835 26.935872321156822, 45.365123863499946 13.368187590673307 M30.068751835391943 40.63680256364962 C31.514093049465416 35.13072140262272, 38.19205716390581 26.45262324913287, 46.557437325842095 20.711466595751077 M27.626423554622654 41.00836154932251 C33.32399797216898 34.44938074883212, 40.02119037946319 28.14501532347547, 45.31098197774531 21.06535861570093 M32.50395471922265 41.274464413752845 C38.88794996803264 32.97785706766319, 44.70470447239239 30.557024167921096, 45.02149377184951 26.380212125490672 M33.362944871170015 39.98808906497067 C37.06647792022716 35.37150233744902, 40.45390301031201 31.379571704958032, 46.75948747092889 26.57406038621559 M38.14287448281984 40.10972745328191 C40.395654149659 37.64424199593123, 43.16212113589672 37.53920546448573, 46.874907912523796 33.11433490178025 M39.1998621940017 40.66353391304593 C42.00845278453311 37.50635885536846, 44.47297494676725 34.27748573409733, 45.664638229809086 32.08648057974352" style="stroke: rgb(76, 110, 245); stroke-width: 0.5; fill: none;"></path><path d="M1.5116182509809732 -0.6754068974405527 C12.449163966202832 -0.29543172449648414, 23.143417826566292 0.3340475049537417, 43.2941257301718 -1.6045351270586252 M0.7943737981840968 -0.7823878554627299 C11.584329976465598 -0.7884589543389666, 24.607855299949737 -0.1702042033719408, 44.51578094344586 0.9142648251727223 M43.615667993202806 -0.43795635737478733 C43.77224624526616 13.458912099110421, 46.12280184400197 26.524945213188403, 43.44681476987898 39.373491203412414 M43.70050312858075 0.6388634713366628 C44.91126494103037 9.78439847557911, 43.59470267587267 16.989531448876733, 45.388908374123275 38.17386167962104 M45.23147653974593 38.781784450635314 C34.51418577975528 40.81510905119667, 22.266615860218735 38.30384502503166, 1.3749955240637064 38.93433270417154 M43.794829594902694 38.39710992295295 C30.87902277324065 39.06124281670763, 17.749458436624987 37.57662090446665, -0.07860617060214281 38.12692948896438 M-0.28591460548341274 37.1414693351835 C0.6296537712910322 26.843912856847055, -1.5237617298266741 16.219305215790882, 1.3419126216322184 -0.535841191187501 M-0.7432339610531926 37.87885662633926 C-0.5269610865721006 30.50390535083261, 1.0382534579625826 22.48060526703739, -0.15754516143351793 -0.8624875573441386" style="stroke: rgb(0, 0, 0); stroke-width: 1; fill: none;"></path></g><g transform="translate(350.966796875 370.8740234375) rotate(0 22.294921875 19.2626953125)"><path d="M0 0 C0 0, 0 0, 0 0 M0 0 C0 0, 0 0, 0 0 M0.054951228233998006 6.130876370568864 C0.32539190395927575 5.651459450639952, 2.2417470606015124 3.1978833478294266, 4.734621747168249 1.065711997806769 M-0.313993873042042 6.381892674838297 C1.0221005819056646 5.04370926076116, 1.93245937170449 3.6894371617903006, 5.324342815535611 0.29140315873895223 M0.5145141416322099 11.492309321879922 C5.244865126130316 7.702074506468067, 7.615929991359659 3.631943793540745, 11.16333729619993 -0.4467642356559871 M-0.208596326308359 11.826911362677395 C4.01301405669418 7.5718128072656175, 7.058282572629633 4.88520107949628, 10.632039605778587 -0.3175785642966865 M-0.05716676735787196 16.66328974897104 C5.154880854043725 14.99542183630931, 4.501340316514561 11.19075572608951, 14.201803965031583 2.317161376301663 M-0.4135894384747605 17.78453226564514 C2.3717862565604193 14.028688081353963, 7.056799174909539 10.136921523421364, 15.29650342883863 0.5549788062390855 M2.1877190007082437 25.34424037457919 C5.310245315808572 16.105023468220455, 11.501864746654599 11.850756459109082, 22.595955040583277 -0.8570142095745084 M1.0067209948039864 23.38949737017518 C7.754382818540861 15.857418785308303, 15.557138291501674 5.881793538482675, 21.663464385362232 0.8865676153614643 M1.1353618866344348 30.194125205043903 C7.765420580345119 22.567203005313353, 15.534705597476986 13.2186788582361, 25.572685011338802 1.0147585695621313 M-0.8864477592940077 31.42070659319704 C7.3444976166235305 22.44714028820153, 11.814957569170051 15.661687979978826, 26.744320422087224 1.0276708066475333 M1.2381466030049602 34.89530741404866 C10.141831343524444 27.16163936671743, 18.61607236278526 12.787424085464323, 30.980671993872917 0.713648932172287 M-0.4343206073251089 37.23059757128482 C9.832654803187502 26.943535990299097, 18.333485492424643 15.300670053222252, 31.49941347394774 0.8836336239486222 M3.547494324375606 39.07891205960861 C11.42268486725359 30.709887533824357, 15.8242502289818 22.912032679534978, 36.11271736379837 1.8150550426077565 M2.065249943625844 39.6604088878443 C10.079246336986028 30.570475429246375, 20.614645583293182 20.043447010918925, 36.1212946724159 -0.1496806804928461 M9.058949484340115 38.67029314563001 C13.386570009766935 32.950886644378066, 24.960558875952668 21.514066565116753, 42.8917179876899 1.7134273693292386 M6.296620583011968 40.291897134672354 C21.179011807029553 25.668511069748604, 33.989744873857774 11.75028528180437, 42.81444657742583 -0.25481748782554803 M13.305738804520715 42.196824041687435 C22.822013349393927 29.629400022224985, 32.1403433103972 17.796957480261945, 47.247575933179256 2.231864487134075 M12.113666225814868 39.66137733173419 C21.7604076330351 30.98796776108214, 28.35618768389331 22.400992017885574, 45.76594288746863 2.3231149896384835 M16.920507410530146 38.83155916213267 C25.1096929637317 30.093734524821024, 32.91102638663958 21.475472328061848, 46.303170700879164 8.646936435374066 M18.695266128506656 40.20963460627221 C25.104635851842183 30.23226048165888, 35.321494441380096 21.241433139455744, 45.925170671516426 8.207519066641673 M21.540995918943167 41.19160522542642 C33.60209407440294 31.825418185514145, 40.67766305091354 19.09485396845678, 44.93609534034539 13.732346397064367 M24.04473097602147 40.986545452137754 C27.46292058511201 33.63843039425374, 32.66564674460851 27.865975830709246, 46.159316484984345 13.840219264089802 M28.499068205372517 42.43829789592048 C30.49568511233501 36.284776253438444, 38.13154396728606 32.64956323141395, 47.81162518916221 21.613816920888453 M28.27258064983142 39.65750437157323 C35.22524761345481 33.01695794365885, 40.430064924663135 26.033584232404134, 46.88008510881604 19.24259853105697 M34.00617075155632 39.34456119243621 C37.0671890718961 35.36589828047928, 40.67684615367172 30.967801361095674, 45.34705258644217 24.62975132775611 M34.35727443386012 39.47040967922292 C36.976394518923335 35.06457594339012, 40.68229860636116 30.875511921883547, 46.53904767915637 25.724871735164214 M39.45725726707469 40.88110621909592 C41.60401475197595 38.226073422156055, 43.7230684244576 34.98228595313165, 45.75328770915543 31.185498107396427 M39.280170508321405 40.826174439284756 C41.66794450885897 37.91221586465803, 43.30852358158486 35.261265222688984, 45.65615096266878 32.697608450366545" style="stroke: rgb(76, 110, 245); stroke-width: 0.5; fill: none;"></path><path d="M-0.3698768261820078 1.6757233683019876 C14.61173092661011 -1.4654751126652628, 25.70250577840125 0.9812528188342184, 44.75829169712961 -0.8491441067308187 M0.25236618239432573 -0.032009643502533436 C11.93153480204819 -0.5613580263599943, 22.721296263804106 0.5623053096785952, 45.525961306877434 -0.66941196937114 M44.738469099625945 -1.7057482060045004 C46.60669307920716 14.880988897702084, 45.30274831268571 30.85993219342527, 44.99539700709283 38.986663753166795 M43.792002824135125 -0.5793324233964086 C43.89611542411194 7.342013146767386, 44.51909181661949 14.962381963696318, 44.43153136689216 38.62834562640637 M42.955570137128234 38.50382369197905 C31.310910518923265 39.634624754672224, 18.70498342940482 39.40721557069319, 1.2894385810941458 37.0151386205107 M44.54583185631782 38.027270692400634 C33.53008053629128 39.2864028269456, 23.42283465602304 38.94919160548907, -0.06488660257309675 38.384197819046676 M1.9117363449186087 39.95049619115889 C-0.6147948324864956 25.127761917649877, 0.3581196844393162 11.269621531469966, -0.871851647272706 -1.150865500792861 M-0.13479784410446882 37.69865785818547 C0.6686978515640476 29.236369146518882, 0.8618322488323429 21.22108952146118, 0.744501587934792 -0.1638487996533513" style="stroke: rgb(0, 0, 0); stroke-width: 1; fill: none;"></path></g><g transform="translate(404.869140625 370.5068359375) rotate(0 22.294921875 19.2626953125)"><path d="M0 0 C0 0, 0 0, 0 0 M0 0 C0 0, 0 0, 0 0 M-0.04341912564354644 6.495524347622983 C1.0817691723955858 4.598302663941832, 3.844728263779901 2.324059172523739, 5.744540778132624 0.4672556791302973 M-0.015245109391386291 6.483462855641834 C0.6792601706409737 5.350331698672073, 2.161247327559225 3.662511030809346, 5.022890902268237 0.10609782932673034 M1.2530617677699434 10.724770616411744 C4.858741327793726 8.297460701010179, 8.088663240232313 2.4148124712444554, 9.160178169560563 -0.540966244499409 M0.9126472623180257 12.176177946894944 C2.562811689861292 8.543527027607336, 6.016163051853988 5.506830667054217, 9.851531437736881 0.5726418945088747 M-1.2357572848489742 16.920419935975843 C6.323903767364832 11.381908049682433, 8.323219616689578 8.599815025529583, 15.094634236305435 0.1271860363823345 M-0.4931803942239146 17.84950729822802 C5.658224022933606 11.90773868363814, 12.574511825940883 3.9004450061963922, 16.250571394808073 0.36976411723764446 M0.0076837858370755185 24.86438332842207 C4.881964060371512 17.197617489491705, 10.301451788751546 15.31616711665217, 20.67058722702589 -0.28674243817334144 M0.5806033566779707 24.264987389273106 C7.975479219282792 15.425576670525865, 14.185111101756059 7.916711510316141, 20.694000282602275 -0.11513671053801744 M1.882459397478904 29.338071178410402 C7.334660290194222 19.843006293978313, 19.300262629837125 10.962037669578176, 26.55567016885838 -1.3087028028431593 M-0.013792168297861451 31.37873956817036 C5.57197480762195 22.640700493040296, 12.612844944049511 15.861532811860995, 26.17087953319064 0.4625228796166123 M1.2512325829732696 38.568646464311826 C8.839398981568648 26.073918077343034, 17.663908661935512 17.299067167870724, 30.247120748690165 -0.5385072844789143 M0.5708236516359726 36.54912188165014 C9.992717244016882 24.225908816312607, 21.64445575355104 11.905077094546499, 31.429575983851052 -0.2418508332908864 M0.2827340871884587 41.83750279882899 C17.33497431667586 25.632265193295154, 27.858517298254903 8.305583240097633, 35.518331162446486 2.1987295859586915 M1.340248211738384 41.10180894827447 C12.068309674928251 29.585413109878296, 20.788082196524975 19.790497982393724, 37.50340004339938 -0.5413179368618408 M8.921849164030714 40.700731490555654 C21.923879915510362 27.869662938196008, 33.503070362403314 11.1665492335019, 42.729820347014595 -1.2475856683821434 M6.835222478806241 41.144009019996474 C13.609618628733259 32.31113741735338, 22.353961135789028 23.43288890585756, 41.9278279241135 -0.22383152708867726 M14.608176605434764 40.171911963753885 C21.391411936065964 30.83305058030777, 31.041942912872265 19.821993824070024, 45.33114369033873 2.131070331983423 M12.756240020164896 39.34100440193761 C25.451840972006067 25.38499401616809, 37.44105883136291 12.74389396304128, 46.148661351828274 2.5261080938728213 M15.962764857325848 39.640773437462975 C28.398853876132357 30.595470530120565, 34.82330122956964 20.783152977693025, 48.17186526334412 8.40216118109469 M18.556533119630213 41.42856313149654 C27.225240664919475 29.36451123587015, 35.690808502843396 19.2953644386891, 45.73924979785956 7.6210267759213295 M21.818789106591225 38.54656618483113 C29.57169954314036 29.663378175751063, 37.644059937279145 23.11952494584258, 45.188293935899026 15.610752366654316 M22.37899986448008 40.48006023768084 C29.57470352092118 34.53752911023283, 35.31777740012674 27.924766561234307, 46.99347659496624 13.582888200118878 M29.035579049156134 40.35323817489763 C31.440971386014276 35.77087523896228, 39.92334402017855 27.429789940358894, 46.56145211590023 18.509397492033273 M27.776481913530354 40.475404382889174 C32.77028684281443 34.675537825659184, 38.21657102110489 27.97747631670078, 45.98997767643572 20.86673010069582 M32.868932862795454 38.5344328167346 C37.553984500796155 33.31995264464502, 43.326762026125834 29.447818340814678, 47.68344256895625 24.31059726507521 M33.932358689588995 40.76251796753711 C36.623795062453205 36.85741763511726, 39.936177687072785 31.877458413728572, 46.5256926044266 25.162059454416173 M39.81118855530958 40.29832060544732 C40.25285593449783 38.17024468977087, 41.11625910788028 37.68835076807973, 45.30536826720958 31.26611593923009 M38.64272954607013 40.11348560795169 C40.6170244149662 37.736986241874654, 42.950264332405574 35.30856518220781, 46.71336557676581 32.10424552805199" style="stroke: rgb(76, 110, 245); stroke-width: 0.5; fill: none;"></path><path d="M1.724996978417039 -0.6708548311144114 C16.802706509277414 1.5907448909854793, 33.14475357981064 -1.3245508887195683, 46.21949672140181 0.9785825368016958 M0.9141739783808589 0.09211042243987322 C16.220090578017334 1.1134932738032148, 32.11855459434082 0.6109317939963148, 43.64742861967534 0.6792440982535481 M42.679024213925004 -1.1698258761316538 C43.61760566568455 8.972835480885808, 43.96584765052876 21.717461788464792, 44.07158952392638 37.87564382515848 M44.06113182287663 0.5465658279135823 C43.554117819912335 12.129602951060406, 44.919757893927 22.63835742802803, 43.90258939843625 38.07058629114181 M43.09531074203551 39.92256317101419 C29.504599986566973 39.02602982846747, 16.45764571608379 38.02089411345969, 0.964127654209733 37.931386983022094 M44.22523577790707 38.53396972734481 C33.89821429917538 38.63001916288613, 22.526960451974446 38.26768404721497, -0.7142943860962987 38.82107937056571 M1.5652261916548014 37.55888799391687 C2.003426382186717 30.69727164401138, 1.5409345718649092 21.312498174354914, 1.7091838661581278 0.014403318986296654 M-0.6103903772309422 38.371491310186684 C-1.159938916570809 27.964541619056945, 0.08167962729248757 17.996065629404256, -0.8265442671254277 -0.1183184115216136" style="stroke: rgb(0, 0, 0); stroke-width: 1; fill: none;"></path></g><g transform="translate(459.490234375 370.6435546875) rotate(0 22.294921875 19.2626953125)"><path d="M0 0 C0 0, 0 0, 0 0 M0 0 C0 0, 0 0, 0 0 M0.25785014334601664 6.664407742817991 C1.4170764513528904 4.312415663011523, 3.0127925689115203 2.6681382575589887, 4.64527370068664 0.14616028404210146 M-0.06833049614446857 6.398758897607319 C1.588571811825397 3.7726481130952596, 3.54540312368812 1.935800500428125, 5.0012443430298035 0.005036830886941512 M0.3759509527217255 10.908617423891602 C5.877840895871493 5.788559399958177, 9.670757113680999 2.3400974847031946, 10.173645052266252 -1.081071158210957 M-0.6506348698307169 11.78437699493724 C2.9761472210256685 8.779232163928938, 5.2811270731764415 6.735842869043878, 11.398661140304934 0.47051455705312506 M1.053460962087824 19.77441782215672 C3.339497878048032 14.955215609464254, 8.364949212910275 7.39628597689447, 17.097965718715866 -1.0588265297072956 M-0.9375260174786906 18.841927166935676 C5.276394808886276 12.936997657396553, 8.731992423736958 8.459897500756535, 16.18236922705867 0.18292468571336773 M-0.5491196194478061 23.40720682190275 C7.903701548072882 14.808722923325844, 14.045797640988395 8.808159191589152, 19.477616295495892 1.8134216772555831 M0.25743445308872204 24.578842232651173 C9.409775222593183 14.928689568400607, 16.142411568392625 4.7938078916231035, 22.007564434127772 -1.059978423251259 M-0.9062909529964074 29.56990338465964 C8.374330799064854 21.550025232837164, 15.723836753069298 12.499674253237735, 25.891799655419202 0.9977429745730699 M0.019658763012792235 30.088644864734462 C10.587847439688154 18.36320898543095, 19.23441066710708 8.359599929679021, 26.967864056725414 -0.2975415732699691 M0.0028131193387785913 36.11271736379837 C13.72721770486093 22.04572880766616, 24.19610407019064 10.649304512978386, 31.808456610373057 -1.2951279896066303 M0.16411097058090363 36.1212946724159 C5.757889911773608 28.219834014056886, 13.848446499381184 20.892905587216045, 32.87315836962948 -1.0765069228351827 M1.817626467426038 40.62758924702159 C11.387524421777282 32.25555331195472, 15.708425423067688 23.264085361070176, 35.2841824812827 -0.3922588712442199 M3.0081119085519674 40.550317836757515 C15.583037027850906 24.398203188570406, 28.755669343734386 7.7322149607428585, 37.162031219155836 1.244167002951773 M8.266237470171614 41.668657217923055 C17.092754690678646 28.537117438047936, 26.13504732747623 18.203222478729206, 41.27519933003538 -1.2586962721915 M7.7476759812228515 40.18702417221243 C21.6389099295427 24.32895224024643, 35.19112137431193 9.41038828055482, 42.11898225508236 -1.0131213294015282 M10.883948044510234 39.93504757576484 C24.452156530278735 28.432839134447832, 34.873563821640566 17.398172866356727, 48.13926566957533 0.9871300620363712 M13.082320193418909 39.5570475464021 C20.842732521244802 32.58237700903784, 27.616083970520577 23.812664923818193, 45.28258664074391 2.2337293404491305 M16.700009761367138 39.189536414586236 C28.467380568100534 26.146028370762963, 40.06560043872656 15.561292787931453, 47.94664869582779 8.973230600478693 M16.808050266456004 40.41275755922519 C24.489844906566354 32.765316665913105, 31.76756306015034 25.359360979721806, 46.662717284956344 8.320096424902424 M25.268300932629586 41.931920882535444 C29.35410743682081 36.045188033641516, 32.15293709626005 29.0029348081054, 46.16686040366102 11.992717705838123 M23.75428772511202 41.00038080218928 C30.136269382105127 31.826272028702306, 37.90535194338123 22.703470958365, 46.33353095797855 13.347045167520383 M28.481354379222815 39.37419582365175 C31.414443473285814 35.5987884919655, 38.34556202061469 32.21957532946237, 46.826626325971795 18.733691856485635 M27.504147665702824 40.62892750019302 C32.69679072187264 36.380017038851015, 36.261880690463684 30.39508908467124, 46.49768703059794 20.504964865033358 M34.83708447686539 39.380995586743644 C35.78845387711414 36.14210050718458, 39.912921810789115 30.40735710808405, 47.48661186414802 26.895645466755397 M33.630899235589 39.21321393372125 C39.54234826932687 34.03524103637292, 42.563381804971726 29.235025251305245, 46.42518820757077 26.314318826590917 M38.15327107662897 40.36370721369031 C39.72009032886869 39.61414116293239, 42.26599885473711 37.0733581578799, 45.32306524089103 31.916732516497735 M39.16967729622129 40.00833315446954 C41.884367326357044 37.08678183503791, 44.31308919975174 34.816958124358585, 46.33445266445664 32.399055452118056" style="stroke: rgb(76, 110, 245); stroke-width: 0.5; fill: none;"></path><path d="M1.4663960877805948 0.4055532570928335 C17.914513738798636 -2.001745542223398, 36.26496941777078 -0.5331816875290315, 42.99416189827025 -1.1586648467928171 M-0.8914702059701085 -0.15831238310784101 C9.219750899004794 -0.11089559031515817, 17.908718395276082 0.18434394763917228, 43.77270694356412 -0.010783466510474682 M45.45556622184813 1.2894385810941458 C43.29015836573717 8.146225132320069, 43.89080170251009 19.321468333326266, 44.501819962635636 37.52915075980127 M44.95121880155057 -0.06488660257309675 C44.71778403457529 9.160807617915452, 44.56197501953966 16.782586623865427, 45.545711922459304 39.237943408079445 M44.163648480549455 37.653538977727294 C31.687806374769934 37.15113425921027, 21.678877492257016 36.9625974364144, -0.26959568820893764 36.87192509137094 M44.897082972340286 39.26989221293479 C27.55938225938189 39.815066840644974, 10.863820027563634 38.5917803013288, 0.7426623282954097 37.578639772720635 M-0.8472843822091818 39.26097700558603 C-0.45053241963660184 27.66623767490546, -0.17734651084219877 21.417176673692666, 1.2751908246427774 -1.2637036684900522 M-0.5092304768040776 39.46104481536895 C0.6747978340213194 26.835752732552464, -0.669913082259427 17.199379907853654, 0.395510065369308 -0.33363455813378096" style="stroke: rgb(0, 0, 0); stroke-width: 1; fill: none;"></path></g><g transform="translate(299.248046875 322.6982421875) rotate(0 22.294921875 19.2626953125)"><path d="M0 0 C0 0, 0 0, 0 0 M0 0 C0 0, 0 0, 0 0 M-0.5898538857372353 7.143219865162961 C2.3708081978246476 4.190641054371822, 3.7565410977860294 1.994072921031302, 4.841902557345575 0.41770006751988464 M-0.6264723475696394 6.733448753182881 C0.5557467952091693 4.827290185799545, 1.9488143616654854 3.8918166275819535, 4.608753431546039 0.4762485980835968 M0.9085153066645968 12.72254660022217 C3.0384588275510014 8.629303586672842, 4.9863274917637685 7.165538057428826, 9.128273615193498 -1.4057100971147656 M0.9318393618892538 12.198016349643051 C2.9944118038430156 9.060776405543843, 4.506786969908492 7.225834252653098, 10.372300533157718 -0.5823530462488768 M-0.5615419084718685 17.97085303524571 C5.220757890743958 10.526188918516443, 11.464324238897216 5.733625639216056, 14.981978656261642 2.129681742463725 M0.15192922944666343 17.9361515006988 C5.183290233033224 12.80221591590998, 10.475144589151622 8.075441921192484, 15.620766276962538 1.0469205954042247 M0.3566828688792203 23.39912085579252 C5.416389404995116 14.786109723447701, 13.983312652611145 9.670192455279722, 20.158557638803387 -0.4669955266476151 M1.0750734463519667 24.830686042732655 C6.029823585572402 17.831321988895827, 11.981156257836298 10.531935656835493, 21.694286831932033 0.7168859861954573 M-0.06098193390766227 29.48156381747519 C6.00894111033145 23.73086619501529, 12.522332736592794 16.824095433240068, 26.343058076363416 -0.30701962727934706 M0.6862090416764275 31.137146237071804 C6.156461808574151 22.042242601026388, 14.653503130376608 14.136172222135578, 25.558795591492565 0.5585731718701066 M1.5735173410642425 35.5762042736647 C10.168205946961749 25.33818755245156, 20.10332149643376 11.885458537801071, 33.12060828082899 1.578156588716734 M-1.0707936762925705 36.0390854429466 C6.5162471291893205 28.380185279961303, 14.632417047260317 19.93195885199532, 32.77808908042202 -0.16616625606424762 M3.0168020636632207 42.032795212063704 C14.008327747467838 26.137001489522195, 26.667761690022786 12.310069885675205, 37.41499107312535 -0.13072203462007437 M2.875292375203884 41.218623591419075 C9.246548931128483 31.522607802186016, 18.139025397171917 22.149872039313994, 37.16965739503627 -0.6326970727089325 M8.864148112795515 39.41328731626595 C16.119827265328702 30.95474849766018, 25.708128170695026 17.68943182700128, 41.79961601513975 0.8591104008584267 M7.099387850462659 40.67066424694235 C15.701021160505386 32.00682861062648, 24.043856838613245 22.16874494284757, 42.02190643511318 -0.9600270615563744 M14.268044905395854 41.67461938553352 C26.039035933370712 27.00182215541296, 37.53726782265494 12.117915683093148, 44.99942911981642 1.9370366496370792 M12.304916004309106 39.47943502713788 C21.654796673732925 29.471257784464605, 28.924432802340426 19.475590785593152, 46.50231761398762 1.8675387877376437 M16.624931512389477 39.087380013905694 C28.255455179369655 28.820112895631794, 38.96679121209608 15.73005492403492, 46.2018850830806 7.488879680755183 M16.916788808059092 41.33089928190433 C24.86967709145682 32.615403806495834, 33.44095561646547 23.445080052992754, 46.87467009047545 7.493971637571796 M24.605873745663644 41.90917884953068 C27.84839358002992 33.021315267122255, 34.721689931924516 27.67952071583624, 44.743683399800545 13.815564356915393 M23.0183340364905 39.779877352749274 C29.87495621963125 32.98066424954077, 35.909927837696614 25.456481774812428, 46.09202688483555 13.703930481508115 M29.97059192614359 42.359823236447774 C36.82709545615923 34.18088553542547, 42.83291873388672 25.228264737770623, 45.26873710287304 21.863003656488686 M28.071573035919194 40.81897321457138 C34.77564379184974 31.559235284866077, 41.31999672776387 25.414101107597546, 45.86095361785532 20.74639836627695 M35.78433275691376 38.60272180162935 C38.636396580144805 36.13399040800778, 42.99463440352809 30.55126212181442, 44.84398473220908 26.84135964245654 M34.127542105299916 40.36117774964875 C37.78868498139948 36.94772830106973, 40.58164269978298 33.0699263685313, 45.62260069245503 25.61237667480602 M39.928867993304536 40.402472060015235 C41.71285205907847 37.01853437513941, 43.506507352903306 33.83726469186343, 45.88546216061836 31.378444674224024 M39.3121395915151 40.7057892818747 C40.03163517243957 38.47893011815066, 41.72101799080435 36.821706928312075, 46.27291620334176 31.972540975580355" style="stroke: rgb(76, 110, 245); stroke-width: 0.5; fill: none;"></path><path d="M0.5856385175138712 1.356878912076354 C15.603792212643386 2.184931586062703, 28.847281982602002 1.7704006531594132, 44.210808807983994 -0.39568605460226536 M-0.09705508965998888 -0.9462329773232341 C13.404748783794277 0.6610377247970973, 25.10600315010743 0.0951513167065059, 43.75944765191525 -0.05005064886063337 M44.445955807343125 -1.6148799899965525 C44.55397483083698 10.404223745611489, 43.18016900989505 23.000817334124804, 45.9829245749861 39.9298935290426 M43.73809989076108 -0.5278293220326304 C43.46393171240152 13.10254677510693, 44.22009092856706 26.685037931145416, 43.79896645527333 38.087496873922646 M45.87357389368117 37.46315625868738 C30.177123637547993 37.68295057316154, 12.129959651556423 38.63036193151802, -1.370957201346755 37.050324415788054 M44.39481382351369 38.23580920416862 C28.422469870421992 37.871946787816526, 13.90928100003293 38.04754406808043, -0.8590292753651738 38.323239472694695 M-1.4522469695657492 37.11192271672189 C-1.7125934199143558 26.84404628225184, -2.0969621375847964 17.571506380374554, -0.3883731421083212 0.8400572892278433 M0.17164017539471388 37.768297103233635 C0.4416892198573805 29.1220770469763, 0.6434680191528059 20.700494022274142, 0.19631861429661512 0.4958307119086385" style="stroke: rgb(0, 0, 0); stroke-width: 1; fill: none;"></path></g><g transform="translate(308.04296875 329.4609375) rotate(0 13.5 12.5)"><text x="0" y="18" font-family="Virgil" font-size="20px" fill="#000000" text-anchor="start">P5</text></g><g transform="translate(310.794921875 377.3525390625) rotate(0 8.5 12.5)"><text x="0" y="18" font-family="Virgil" font-size="20px" fill="#000000" text-anchor="start">P1</text></g><g transform="translate(359.5 377.63671875) rotate(0 14 12.5)"><text x="0" y="18" font-family="Virgil" font-size="20px" fill="#000000" text-anchor="start">P2</text></g><g transform="translate(413.6640625 377.26953125) rotate(0 13.5 12.5)"><text x="0" y="18" font-family="Virgil" font-size="20px" fill="#000000" text-anchor="start">P3</text></g><g transform="translate(469.78515625 377.40625) rotate(0 12 12.5)"><text x="0" y="18" font-family="Virgil" font-size="20px" fill="#000000" text-anchor="start">P4</text></g><g transform="translate(304.78125 195.02734375) rotate(0 99.5 12.5)"><text x="0" y="18" font-family="Virgil" font-size="20px" fill="#000000" text-anchor="start">Noeud Elasticsearch</text></g><g stroke-opacity="0.4" fill-opacity="0.4" transform="translate(10 10) rotate(0 487.220703125 249.400390625)"><path d="M-0.5848540641367436 0.5094700552523136 C295.0012164436561 -3.5656294465313705, 588.3731901191735 -2.8941877246151715, 974.0335962675512 -0.5956627868115902 M-0.015286995097994804 -0.31854037530720236 C336.11688727523546 1.8621739819766518, 672.6546023933472 1.8074881628276347, 974.5981450427323 0.33826398365199567 M973.6929542226779 0.4129121868973375 C973.9668980841749 192.30179853809364, 973.4755240388797 384.17949598155263, 974.1942741873388 498.8562044088303 M974.1894891195495 -0.21512371771803865 C972.7657381662998 153.79896712380267, 972.7860108624755 307.8255643199909, 974.5733818400935 498.7586943234425 M974.1859649799765 499.59523594155905 C733.1904526814305 500.24759350987864, 490.76829472248426 499.5951811668535, -0.3225820638239384 498.64197840467097 M974.4399578560144 498.4853551696986 C678.3840077723481 501.59726923364593, 382.81995107552274 501.37205195087387, 0.36524063237011434 498.93134638778866 M0.15656995254617342 498.6435023000874 C-0.926131783054789 336.14741199872384, -0.0946388516968093 172.79941995776062, 0.15655785422824062 -0.741276854846976 M0.2515779919893841 498.7226666226851 C0.44049377878466534 380.1213163901586, 0.03468106228231102 262.1926541002264, 0.22309717404431562 -0.26530393496499166" style="stroke: rgb(0, 0, 0); stroke-width: 1; fill: none;"></path></g><g stroke-opacity="0.7" fill-opacity="0.7" transform="translate(376.640625 84.1171875) rotate(0 107 12.5)"><text x="0" y="18" font-family="Virgil" font-size="20px" fill="#000000" text-anchor="start">Cluster Elasticsearch</text></g><g stroke-opacity="0.7" fill-opacity="0.7" transform="translate(605.23046875 76.59765625) rotate(0 21.583984375 16.359375)"><path d="M5.089680470913967 5.749404726436571 C5.089680470913967 5.749404726436571, 5.089680470913967 5.749404726436571, 5.089680470913967 5.749404726436571 M5.089680470913967 5.749404726436571 C5.089680470913967 5.749404726436571, 5.089680470913967 5.749404726436571, 5.089680470913967 5.749404726436571 M1.5848060551208798 17.81720615158172 C2.145445286259439 12.465007865929264, 5.612437510043956 10.724215892101142, 13.157509140922246 2.3459992303220374 M0.01937999554140335 16.13588419066125 C5.847383415019908 10.337546629177298, 11.698990148616225 5.893832376899611, 13.330812988915039 2.196045690419693 M2.9209481433094453 19.99169146502558 C10.355930261625211 14.783536965722096, 14.439638613265858 6.7362785773882585, 20.40687596071968 0.710916149462534 M4.15506835487345 20.208423871082996 C7.055693952653577 15.056056807141893, 11.632947748236848 9.530455591869543, 18.787178083513773 0.2746855430630575 M4.624548877925907 25.542596480603223 C13.17725553608118 14.580819823969858, 19.1046721813462 10.130256855440587, 23.981933568193952 0.4560409793804201 M5.250737088137601 24.27369160929591 C13.058001410711537 15.040447467434625, 20.56019562534385 7.094372217731024, 23.686546083129386 1.806749427708498 M6.371963317986706 30.02487699972091 C15.252055457519129 19.50435004505642, 20.82719028747262 13.476259246001185, 28.252302004465804 0.9302806782173718 M5.825490789968649 29.249477040074744 C14.569800617763423 20.213891357089167, 21.324901012395273 11.500330003225365, 28.238072102399514 2.038678036314508 M9.746053609057114 31.636867660616574 C16.01972024271846 22.430576878733245, 26.231962891287253 12.727024532217516, 31.666459732119492 3.2574046696568626 M10.831667924291239 29.32547832704806 C16.4129130155018 22.492020153666495, 23.523976151068254 14.877103535139176, 33.508734359767786 3.6959558804551857 M12.961687097759357 32.38055120786477 C19.789311476039288 27.048145359086444, 25.676532454421157 21.528619371283995, 34.710567501767756 5.663201743050683 M14.891698093586973 31.941330802681037 C19.312088148204403 25.215138694147452, 27.2753329999241 18.1075169646398, 36.98502929920632 6.208625899872947 M18.707767592687187 32.331672270371755 C25.136081563897875 26.70802568557295, 30.59433106207787 20.02684233101472, 40.43838155498535 9.255012991859546 M17.733883299808976 33.96297074627056 C25.890528813464876 24.31523383872867, 33.022907239493875 15.462757334455738, 39.69663479314924 8.39707240091913 M22.740794393396385 31.947527781152694 C29.970202604971348 27.40358351387645, 32.39033705790735 19.053759156811275, 40.47239945036603 11.612489294989695 M23.379706973372407 32.89667580372241 C29.451440435238027 25.61459259095111, 37.34180118203921 18.37753551196314, 41.811305968549675 11.969028537890603 M32.35692212092571 29.648123845395887 C33.142805212781006 27.49010990830818, 34.950104399267445 26.253838966824222, 41.14222214913707 16.40411995885505 M30.53173555126294 30.267219654082574 C34.38568876530947 26.382050618929327, 37.53788408882742 22.3082567122752, 41.333272520990704 17.79661970565638" style="stroke: rgb(250, 176, 5); stroke-width: 0.5; fill: none;"></path><path d="M19.078846133904698 0.4565939215864958 C23.326232578204596 -0.06934558801306834, 28.899215207671602 0.895763035811008, 32.66037253884718 2.6781928945237006 C36.42152987002275 4.460622753236393, 40.24799521760024 7.927835320177117, 41.64579012095815 11.151173073862651 C43.04358502431605 14.374510827548185, 42.82687497672131 18.73695305926262, 41.047141958994615 22.01821941663691 C39.267408941267924 25.2994857740112, 34.98723775675452 28.986458039076332, 30.967392014598012 30.83877121810839 C26.947546272441503 32.69108439714045, 21.23295144650354 33.72038575967121, 16.92806750605557 33.13209849082927 C12.623183565607595 32.54381122198733, 8.008781848222965 30.308991086307543, 5.138088371910168 27.309047605056755 C2.2673948955973717 24.309104123805966, -0.31915386323485545 18.761520653540167, -0.29609335182120944 15.132437603324533 C-0.2730328404075634 11.503354553108899, 1.12690483785574 7.997008778656916, 5.276451440392044 5.534549303762951 C9.425998042928349 3.072089828868986, 20.532952524014384 0.8343598037058397, 24.601186263396617 0.35768075396074295 C28.66942000277885 -0.11899829578435384, 29.83610772641074 2.5221542774027506, 29.685853876685453 2.6744750052923703 M18.872475636395272 -0.7262014099501535 C23.260572581973964 -1.4349449643910028, 30.526438539449433 0.1281829570942261, 34.345027106756476 2.0924135743176517 C38.16361567406352 4.056644191541078, 40.64487953646858 7.5184733119568605, 41.78400704023753 11.0591822933904 C42.92313454400649 14.59989127482394, 43.02918535521062 20.023608620805962, 41.17979212937021 23.33666746291889 C39.330398903529804 26.649726305031816, 34.6928294980214 29.36326281130006, 30.68764768519509 30.937535346067968 C26.682465872368773 32.511807880835875, 21.41955666979744 33.500895260666304, 17.148701252412334 32.78230267152633 C12.877845835027227 32.06371008238636, 7.749679726285944 29.422481883025117, 5.06251518088445 26.62597981122813 C2.3753506354829557 23.829477739431145, 1.0136470533918331 19.601733388143806, 1.025713980003367 16.003290240744416 C1.0377809066149009 12.404847093345024, 2.36670716931326 7.751342139209921, 5.134916740553653 5.035320926831783 C7.903126311794045 2.3192997144536456, 15.173979864533006 0.5994014273623094, 17.634971407445722 -0.2928370335244104 C20.095962950358437 -1.1850754944111301, 19.738174323923477 -0.5886982186957068, 19.900865998029943 -0.31810983848853525" style="stroke: rgb(0, 0, 0); stroke-width: 1; fill: none;"></path></g></svg>